<svg xmlns="http://www.w3.org/2000/svg" fill="none" viewBox="0 0 634 153"><path fill="#fff" d="M317.851 3.251L317.005 0l-.856 3.251-1.039 17.357h-.816v5.993h-1.529v4.108h8.47V26.6h-1.519v-5.993h-.815l-1.05-17.357z"/><path fill="#fff" d="M312.765 30.709l-2.344 9.652h13.169l-2.355-9.652h-8.47z"/><path fill="#fff" d="M323.59 40.36l3.648 3.558h-20.466l3.649-3.557h13.169z"/><path fill="#fff" fill-rule="evenodd" d="M306.772 43.918v10.04l-2.619 3.556v10.04h-5.902v6.482h-47.913v1.539h.918v10.559h-2.68v1.916h54.905l-.001-4.036h27.051v2.13h-.011v1.916h54.905v-1.916h-1.753v-.01h-.917v-10.57h.917v-1.539h-47.913v-6.472h-5.912V57.514l-2.609-3.557h.01v-10.04h-20.476zm-3.292 34.847v1.233h10.142v2.008h6.767v-2.008h10.142v-1.233h-10.142v-7.522l-3.384-2.324-3.383 2.324v7.522H303.48zm-49.544 7.369h-.917v-10.56h.917v10.56zm2.691 0h-.917v-10.56h.917v10.56zm2.681 0h-.918v-10.56h.918v10.56zm2.691 0h-.918v-10.56h.918v10.56zm2.69 0h-.917v-10.56h.917v10.56zm2.681 0h-.917v-10.56h.917v10.56zm2.69 0h-.917v-10.56h.917v10.56zm2.681 0h-.918v-10.56h.918v10.56zm2.691 0h-.918v-10.56h.918v10.56zm2.68 0h-.917v-10.56h.917v10.56zm2.691 0h-.917v-10.56h.917v10.56zm2.681 0h-.917v-10.56h.917v10.56zm2.69 0h-.918v-10.56h.918v10.56zm2.69 0h-.917v-10.56h.917v10.56zm2.681 0h-.917v-10.56h.917v10.56zm2.691 0h-.917v-10.56h.917v10.56zm2.681 0h-.918v-10.56h.918v10.56zm2.691 0h-.918v-10.56h.918v10.56zm2.68 0h-.917v-10.56h.917v10.56zm77.776 0h.917v-10.57h-.917v10.57zm-1.763 0h-.918v-10.57h.918v10.57zm-3.609 0h.918v-10.57h-.918v10.57zm-1.763 0h-.917v-10.57h.917v10.57zm-3.607 0h.917v-10.57h-.917v10.57zm-1.774 0h-.917v-10.57h.917v10.57zm-3.598 0h.918v-10.57h-.918v10.57zm-1.773 0h-.918v-10.57h.918v10.57zm-3.598 0h.917v-10.57h-.917v10.57zm-1.774 0h-.917v-10.57h.917v10.57zm-3.598 0h.918v-10.57h-.918v10.57zm-1.772 0h-.918v-10.57h.918v10.57zm-3.598 0h.917v-10.57h-.917v10.57zm-1.774 0h-.917v-10.57h.917v10.57zm-3.608 0h.917v-10.57h-.917v10.57zm-1.763 0h-.918v-10.57h.918v10.57zm-3.609 0h.918v-10.57h-.918v10.57zm-1.762 0h-.917v-10.57h.917v10.57zm-3.608 0h.917v-10.57h-.917v10.57zm-16.747-32.177v-7.552l2.039-1.407 2.039 1.407v7.552h-4.078zm-.652 3.628v9.968h5.382v-9.968l-2.691-1.855-2.691 1.855zM330.531 89.966v-1.131h53.141v1.13h-.053c.191.207.367.451.522.736 1.334-1.98 3.835-2.265 5.075-.019 1.355-2.067 3.849-2.267 5.087.019 1.338-1.985 3.849-2.266 5.086 0 1.335-1.981 3.84-2.265 5.08-.01 1.351-2.073 3.846-2.279 5.087.001 1.413-2.086 4.126-2.28 5.274.409h-.011c.886 2.069.183 3.69-.928 4.708-1.936 1.761-3.749 1.046-4.612-.492a4.507 4.507 0 01-.463.492c-1.939 1.764-3.755 1.043-4.616-.5-.145.18-.303.347-.47.5-1.939 1.764-3.755 1.043-4.616-.5-.145.18-.303.347-.47.5-1.939 1.764-3.755 1.043-4.616-.5a4.56 4.56 0 01-.469.5c-1.937 1.761-3.749 1.046-4.613-.492a4.598 4.598 0 01-.463.492c-1.939 1.764-3.755 1.043-4.617-.5-.144.18-.302.347-.469.5-1.939 1.764-3.755 1.043-4.616-.5a4.58 4.58 0 01-.47.5c-1.939 1.764-3.755 1.043-4.616-.5a4.58 4.58 0 01-.47.5c-1.936 1.761-3.749 1.046-4.612-.492a4.596 4.596 0 01-.463.492c-1.94 1.764-3.755 1.043-4.617-.5-.144.18-.302.347-.469.5-1.94 1.764-3.755 1.043-4.617-.5-.145.18-.303.347-.47.5-1.939 1.764-3.754 1.043-4.616-.5-.145.18-.302.347-.47.5-1.936 1.761-3.748 1.046-4.612-.492a4.507 4.507 0 01-.463.492c-1.939 1.764-3.755 1.043-4.616-.5-.145.18-.303.347-.47.5-1.428 1.299-2.788 1.25-3.75.52v1.72h77.908v1.07h75.035v25.306h24.093v-.978h-12.76v-1.63h12.76v-1.968h-12.76v-1.63h12.76v-1.968h-12.76v-3.24h64.343v11.414h65.617v3.639H634v24.94h-1.62v-24.95h-14.248v24.95h-2.549v-24.95h-14.249v24.95h-2.537v-24.95h-14.249v24.95h-2.527v-24.95h-14.249v24.95h-2.538v-24.95h-14.249v24.95h-2.527v-24.95h-14.249v.01h-3.047v-.01H425.786v1.967h105.376v22.983H102.848v-22.973h105.367v-.693h7.267v-2.905h-7.42v1.621h-55.679l-.005.01h-10.289v-.01h-11.345v.01h-23.972v-.01h-21.22v24.95h-2.537v-24.95H68.766v24.95H66.24v-24.94h.163v-.01H.785v-3.639h65.617v-11.404h64.342v3.23h-12.75v1.968h12.75v1.63h-12.75v1.967h12.75v1.631h-12.75v.978h24.095V99.108h75.023v-1.06h77.919v-.806c-.962.731-2.323.78-3.751-.52a4.476 4.476 0 01-.469-.5c-.862 1.544-2.677 2.265-4.616.5a4.58 4.58 0 01-.47-.5c-.861 1.544-2.677 2.265-4.616.5a4.571 4.571 0 01-.47-.5c-.861 1.544-2.677 2.265-4.616.5a4.506 4.506 0 01-.464-.492c-.863 1.538-2.676 2.254-4.612.493a4.468 4.468 0 01-.469-.5c-.862 1.543-2.677 2.264-4.616.5a4.384 4.384 0 01-.47-.5c-.862 1.543-2.677 2.264-4.616.5a4.38 4.38 0 01-.47-.5c-.862 1.543-2.678 2.264-4.617.5a4.497 4.497 0 01-.463-.493c-.863 1.538-2.676 2.254-4.612.493a4.564 4.564 0 01-.47-.5c-.861 1.543-2.677 2.264-4.616.5a4.58 4.58 0 01-.47-.5c-.861 1.543-2.677 2.264-4.616.5a4.57 4.57 0 01-.47-.5c-.861 1.543-2.677 2.264-4.616.5a4.508 4.508 0 01-.463-.493c-.864 1.538-2.677 2.254-4.613.493a4.466 4.466 0 01-.469-.5c-.862 1.543-2.677 2.264-4.616.5a4.58 4.58 0 01-.47-.5c-.862 1.543-2.677 2.264-4.616.5-1.111-1.019-1.814-2.64-.927-4.709h-.01c1.148-2.692 3.867-2.494 5.279-.4 1.236-2.266 3.747-1.984 5.085 0 1.236-2.263 3.741-1.985 5.081-.008 1.238-2.257 3.745-1.974 5.081.009 1.237-2.267 3.748-1.985 5.086 0 1.237-2.267 3.748-1.985 5.085 0 1.236-2.264 3.742-1.986 5.081-.009 1.239-2.257 3.745-1.974 5.081.009 1.237-2.267 3.748-1.985 5.086 0 1.237-2.267 3.748-1.985 5.086 0 1.235-2.264 3.741-1.986 5.08-.009 1.239-2.257 3.745-1.974 5.081.008 1.237-2.266 3.749-1.984 5.086 0 1.237-2.266 3.748-1.984 5.085 0 .575-1.061 1.42-1.586 2.297-1.638h-42.494v-1.152h53.142v1.152h-10.36c1.236.072 2.48 1.064 3.072 2.803.228.67.277 1.366.182 2.017h12.029v-4.82h1.509v42.328h3.017V89.976h2.344v42.328h3.465V89.976h2.344v42.328h3.007V89.976h1.508v26.968h17.265v-1.465c-1.514.8-2.879.303-3.757-.797h-13.498v-3.333h13.403v-2.191h-13.403v-3.333h15.074v1.233c1.576-.786 3.438-.255 4.384 2.018.098.239.18.474.245.704.767-1.178 1.063-2.75.284-4.638-1.06-2.548-3.241-2.988-4.913-1.754v.266h-.323a4.7 4.7 0 00-.665.753v-.753h-14.086v-3.333h13.403v-2.192h-13.403v-3.333h12.267a4.35 4.35 0 01-.056-2.93c.27-.795.677-1.434 1.157-1.9h-3.216v.01h-3.74v-.01h-1.488zm-4.098 42.338v-11.477h3.017v11.477h-3.017zm5.361 0v-11.477h7.899-5.402v11.477h-2.497zm5.086 3.333h-21.607v.01h-2.344v-.01h-3.017v.01h-2.345v-.01h-3.006v.01h-1.081v-.01h-6.359v9.308c1.226.115 2.448 1.107 3.006 2.749.58 1.705-.001 3.58-1.161 4.462v.807h-1.845v.041h6.359v-15.798h27.04v15.798h6.36v-.041h-1.845v-.814c-1.153-.885-1.729-2.755-1.151-4.455.556-1.637 1.772-2.628 2.996-2.748v-9.309zm1.632 16.242c.094-.074.189-.155.284-.241 1.111-1.019 1.814-2.64.927-4.709h.011a3.826 3.826 0 00-.808-1.231c1.026-.925 2.354-1.088 3.402-.338-.756.453-1.411 1.252-1.779 2.334-.578 1.7-.002 3.569 1.152 4.455v.129a3.649 3.649 0 01-.123.065v.62h-2.762v-.815a2.84 2.84 0 01-.304-.269zm6.66.005c.098.099.201.19.31.273v.806h2.762v-.626c.041-.02.082-.042.122-.065v-.115c-1.16-.882-1.741-2.758-1.161-4.463.364-1.074 1.013-1.869 1.761-2.324-1.037-.708-2.345-.527-3.358.345.306.308.576.711.791 1.214h-.01c.887 2.069.183 3.69-.927 4.709-.097.088-.194.17-.29.246zm6.661-.005c.094-.074.189-.155.284-.241 1.111-1.019 1.814-2.64.928-4.709h.01a3.812 3.812 0 00-.809-1.231c1.027-.925 2.355-1.088 3.403-.338-.756.453-1.412 1.252-1.779 2.334-.578 1.7-.002 3.569 1.152 4.455v.129l-.112.059v.626h-2.762v-.806a3.042 3.042 0 01-.315-.278zm6.666 0c.096.098.197.188.304.269v.815h2.762v-.62c.041-.021.081-.042.122-.065v-.13c-1.153-.885-1.729-2.754-1.151-4.454.372-1.092 1.001-1.89 1.723-2.35-1.033-.678-2.324-.49-3.325.376.304.308.572.708.786 1.209h-.01c.887 2.069.183 3.69-.927 4.709-.095.086-.19.167-.284.241zm6.665.001c.095-.075.19-.156.285-.242 1.11-1.019 1.814-2.64.927-4.709h.01a4 4 0 00-.779-1.214c1.012-.872 2.319-1.052 3.356-.345-.748.455-1.397 1.25-1.761 2.324-.579 1.7-.002 3.57 1.151 4.455v.129c-.041.022-.081.044-.122.064v.621h-2.762v-.814a3.09 3.09 0 01-.305-.269zm6.666-.001c.099.101.204.194.315.278v.806h2.762v-.626c.041-.02.081-.042.122-.065v-.115c-1.16-.882-1.741-2.758-1.161-4.463.364-1.074 1.013-1.869 1.761-2.324-1.039-.709-2.35-.527-3.363.35.304.308.572.708.786 1.209h-.01c.887 2.069.183 3.69-.928 4.709-.095.086-.19.167-.284.241zm6.666 0c.094-.074.189-.155.284-.241 1.11-1.019 1.814-2.64.927-4.709h.01a3.858 3.858 0 00-.786-1.209c1.014-.877 2.325-1.059 3.364-.35-.749.455-1.397 1.25-1.762 2.324-.578 1.7-.002 3.569 1.151 4.454v.13a3.609 3.609 0 01-.122.065v.62H378.8v-.815a2.747 2.747 0 01-.304-.269zm6.666.001c.096.097.197.187.304.269v.814h2.762v-.62c.041-.021.081-.043.122-.066v-.128c-1.154-.885-1.73-2.755-1.151-4.455.364-1.074 1.013-1.869 1.761-2.324-1.039-.709-2.35-.527-3.363.35.304.308.572.708.786 1.209h-.01c.887 2.069.183 3.69-.927 4.709-.095.086-.19.167-.284.242zm6.659.004c.096-.076.193-.158.29-.246 1.111-1.019 1.814-2.64.928-4.709h.01a3.835 3.835 0 00-.791-1.213c1.012-.873 2.321-1.054 3.358-.346-.749.455-1.397 1.25-1.762 2.324-.58 1.705.002 3.581 1.162 4.463v.115a2.925 2.925 0 01-.122.065v.626h-2.762v-.806a2.964 2.964 0 01-.311-.273zm6.662-.005c.096.098.197.188.304.27v.814h2.762v-.62c.041-.021.081-.042.122-.065v-.129c-1.153-.886-1.729-2.755-1.151-4.455.365-1.073 1.013-1.869 1.761-2.323-1.039-.71-2.35-.528-3.363.349.304.307.572.708.786 1.209h-.01c.887 2.069.183 3.69-.927 4.709-.095.086-.19.167-.284.241zm6.665 0c.094-.074.189-.155.284-.241 1.111-1.019 1.815-2.64.928-4.709h.01a3.812 3.812 0 00-.809-1.231c1.015-.914 2.323-1.084 3.365-.364-.73.458-1.366 1.259-1.741 2.36-.578 1.7-.002 3.57 1.152 4.455v.128a2.925 2.925 0 01-.122.065v.621h-2.762v-.814a2.874 2.874 0 01-.305-.27zm6.666 0c.099.101.204.194.315.278v.806h2.762v-.626c.04-.02.081-.042.122-.065v-.115c-1.161-.882-1.742-2.758-1.162-4.463.367-1.082 1.023-1.881 1.779-2.334-1.046-.748-2.37-.588-3.396.332.31.315.583.726.802 1.237h-.011c.886 2.069.183 3.69-.928 4.709a5.042 5.042 0 01-.283.241zm6.666 0c.094-.074.189-.155.284-.241 1.11-1.019 1.814-2.64.927-4.709h.01a3.858 3.858 0 00-.786-1.209c1.013-.877 2.324-1.059 3.363-.35-.748.455-1.397 1.251-1.762 2.324-.577 1.7-.001 3.57 1.152 4.455v.129c-.041.023-.082.044-.122.065v.62h-2.762v-.815a2.747 2.747 0 01-.304-.269zm7.564-.934h6.519v-1.967h-5.811a3.728 3.728 0 01-.708 1.967zm.645-2.935h5.874v-1.968h-6.704c.191.251.362.546.508.887h-.01c.16.376.269.736.332 1.081zm-131.626-2.29a3.858 3.858 0 00-.786 1.209h.01c-.887 2.069-.183 3.69.927 4.709.095.086.19.167.284.241a2.864 2.864 0 01-.304.27v.814h-2.762v-.62a2.149 2.149 0 01-.122-.065v-.129c1.153-.885 1.729-2.755 1.151-4.455-.364-1.074-1.013-1.869-1.761-2.324 1.039-.709 2.35-.527 3.363.35zm-6.666 0c-1.013-.877-2.324-1.059-3.363-.35.748.455 1.397 1.25 1.762 2.324.578 1.7.002 3.57-1.152 4.455v.129l.122.065v.62h2.762v-.814c.107-.082.209-.172.305-.27a5.439 5.439 0 01-.284-.241c-1.111-1.019-1.815-2.64-.928-4.709h-.01c.214-.501.482-.902.786-1.209zm-6.665 0a3.83 3.83 0 00-.787 1.209h.01c-.886 2.069-.182 3.69.928 4.709.095.086.19.167.284.241a2.864 2.864 0 01-.304.27v.814h-2.762v-.62a3.609 3.609 0 01-.122-.065v-.129c1.153-.886 1.729-2.755 1.151-4.455-.365-1.074-1.013-1.869-1.762-2.324 1.039-.709 2.35-.527 3.364.35zm-6.666 0c-1.013-.877-2.324-1.059-3.363-.35.748.455 1.397 1.251 1.762 2.324.577 1.7.001 3.57-1.152 4.455v.129l.028.016.031.016.063.033v.62h2.762v-.814c.107-.082.208-.172.304-.27a5.439 5.439 0 01-.284-.241c-1.11-1.019-1.814-2.64-.927-4.709h-.01c.214-.501.482-.902.786-1.209zm-6.666 0a3.858 3.858 0 00-.786 1.209h.01c-.886 2.069-.183 3.69.928 4.709.095.086.19.167.284.241a2.874 2.874 0 01-.305.27v.814h-2.762v-.621a4.842 4.842 0 01-.122-.064v-.121c1.16-.882 1.741-2.758 1.162-4.463-.366-1.076-1.017-1.873-1.767-2.327 1.038-.705 2.347-.522 3.358.353zm-6.655 0c-1.014-.877-2.324-1.059-3.363-.35.748.455 1.397 1.25 1.762 2.324.579 1.705-.002 3.58-1.162 4.462v.116l.068.037.054.029v.625h2.762v-.807c.11-.083.215-.176.314-.277a5.439 5.439 0 01-.284-.241c-1.11-1.019-1.814-2.64-.927-4.709h-.011c.214-.501.483-.902.787-1.209zm-6.666 0a3.839 3.839 0 00-.785 1.209h.01c-.887 2.069-.184 3.69.927 4.709.095.086.189.167.284.241a2.848 2.848 0 01-.315.278v.806h-2.762v-.626a2.925 2.925 0 01-.122-.065v-.115c1.16-.882 1.742-2.758 1.162-4.463-.365-1.074-1.014-1.869-1.762-2.324 1.039-.709 2.35-.527 3.363.35zm-6.666 0c-1.013-.877-2.324-1.059-3.363-.35.748.455 1.397 1.25 1.762 2.324.578 1.7.002 3.569-1.151 4.454v.13c.04.023.081.044.121.064v.621h2.762v-.814c.107-.082.209-.172.305-.27a5.042 5.042 0 01-.283-.241c-1.112-1.019-1.815-2.64-.928-4.709h-.011c.214-.501.482-.901.786-1.209zm-6.665 0a3.848 3.848 0 00-.787 1.209h.011c-.887 2.069-.183 3.69.927 4.709.095.086.19.167.284.241a2.955 2.955 0 01-.303.27v.814h-2.763v-.62c-.04-.021-.081-.042-.122-.065v-.129c1.153-.886 1.729-2.755 1.152-4.455-.365-1.074-1.014-1.869-1.762-2.324 1.039-.709 2.349-.527 3.363.35zm-6.666.001c-1.013-.878-2.324-1.06-3.363-.351.748.455 1.397 1.25 1.762 2.324.578 1.7.002 3.57-1.152 4.455v.129l.122.065v.62h2.762v-.814c.107-.082.209-.172.305-.27a5.055 5.055 0 01-.284-.241c-1.111-1.019-1.814-2.64-.927-4.709h-.01c.213-.5.481-.901.785-1.208zm-6.665-.001a3.86 3.86 0 00-.787 1.209h.011c-.887 2.069-.184 3.69.928 4.709.094.086.189.167.283.241a2.965 2.965 0 01-.304.27v.814h-2.762v-.62a7.297 7.297 0 01-.123-.065v-.129c1.154-.885 1.73-2.755 1.152-4.455-.365-1.074-1.013-1.869-1.762-2.324 1.039-.709 2.35-.527 3.364.35zm-6.639-.027c-1.026-.921-2.351-1.082-3.397-.333.756.453 1.411 1.252 1.779 2.334.579 1.705-.002 3.58-1.162 4.462v.116l.06.033a3.5 3.5 0 01.062.033v.625h2.763v-.807a2.92 2.92 0 00.309-.272 5.463 5.463 0 01-.289-.246c-1.111-1.019-1.814-2.64-.927-4.709h-.011c.22-.516.498-.925.813-1.236zm-6.682.027a3.829 3.829 0 00-.786 1.209h.01c-.887 2.069-.184 3.69.927 4.709.095.086.19.167.284.242-.099.1-.204.193-.314.277v.806h-2.762v-.626a2.433 2.433 0 01-.123-.065v-.115c1.161-.882 1.742-2.758 1.162-4.463-.365-1.074-1.013-1.869-1.762-2.324 1.04-.709 2.351-.527 3.364.35zm-6.945.322h-6.704v1.968h5.874c.064-.345.172-.705.333-1.081h-.01c.145-.341.316-.636.507-.887zm-.891 2.946h-5.813v1.968h6.526a3.747 3.747 0 01-.713-1.968zm92.449-16.684h2.507v-11.477h-7.889 5.382v11.477zm4.852 0h3.006v-11.477h-3.006v11.477zm38.402-42.338c.187.208.359.452.512.734.188-.28.4-.525.628-.734h-1.14zm5.076 0c.189.204.363.446.517.727.187-.276.397-.52.623-.727h-1.14zm5.075 0c.191.206.367.45.522.735.189-.28.4-.525.628-.735h-1.15zm5.086 0c.191.206.367.45.522.735.189-.28.4-.525.629-.735H358.2zm5.086 0c.191.206.366.45.522.735.188-.28.4-.525.628-.735h-1.15zm5.086 0c.189.204.363.446.517.727.187-.276.397-.52.623-.727h-1.14zm5.075 0c.191.206.367.45.522.735.189-.28.401-.525.629-.735h-1.151zm5.086 0c.191.206.367.45.522.735.189-.28.401-.525.629-.735h-1.151zm-28.25 26.978h-3.17v-1.684c.845.666 1.96.859 3.17.224v1.46zm7.429 0h-3.169v-1.684c.846.666 1.959.859 3.169.225v1.459zm7.431 0h-3.17v-1.675c.847.661 1.961.849 3.17.21v1.465zm7.419 0h-3.169v-1.684c.846.667 1.959.859 3.169.224v1.46zm7.431 0h-3.171v-1.684c.846.666 1.96.859 3.171.224v1.46zm7.44 0h-3.17v-1.676c.847.662 1.961.85 3.17.211v1.465zm7.42 0h-3.17v-1.683c.846.666 1.96.858 3.17.223v1.46zm7.429 0h-3.169v-1.684c.846.666 1.959.859 3.169.224v1.46zm7.431 0h-3.17v-1.676c.847.662 1.961.85 3.17.211v1.465zm7.42 0h-3.17v-1.684c.846.667 1.96.859 3.17.224v1.46zm10.222 3.883v-3.883h-5.952v-1.676c.847.662 1.961.85 3.17.211v.965c.335-.28.674-.554 1.019-.822v-.868c.038-.033.075-.068.112-.103 1.285-1.213 2.079-3.128 1.07-5.575-.31-.745-.718-1.303-1.182-1.688v-7.067h2.069v24.104h-1.875v-3.598h-5.652 7.221zm-1.569 24.237h6.777v-1.966h-6.777v1.966zm0-2.946h6.777v-1.966h-6.777v1.966zm0-2.934h6.777v-1.968h-6.777v1.968zm0-2.956h6.777v-1.967h-6.777v1.967zm0-2.936h6.777v-1.966h-6.777v1.966zm52.061-11.15v-21.821h-2.069v19.392a37.47 37.47 0 00-5.891-5.147v9.859h9.609a37.91 37.91 0 00-1.649-2.283zm-10.029 2.283V113.21l-.01-.006v-12.883h-2.069v11.712a37.132 37.132 0 00-5.942-2.484v14.876h8.021zm-10.05 0v-24.104h-2.069v8.175a37.37 37.37 0 00-5.982-.683v16.612h8.051zm-10.029 0v-24.104h-2.069v7.574a37.231 37.231 0 00-6.034.946v15.584h8.103zm-10.039 0v-24.104h-2.069v9.734a37.151 37.151 0 00-6.074 2.874v11.496h8.143zm79.428-.978h12.76v.978h-12.76v-.978zm13.882.978h12.76v-.978h-12.76v.978zm-322.795-.01v-.683h7.267v-2.905h-8.827v-3.883h5.952v-1.675c-.847.661-1.96.849-3.169.21v.965c-.335-.28-.675-.554-1.02-.822v-.869l-.043-.039-.068-.063c-1.284-1.213-2.08-3.128-1.071-5.575.31-.745.718-1.303 1.182-1.688v-7.077h-2.069v24.104h1.866zm-11.905 0h8.144v-11.486a37.162 37.162 0 00-6.075-2.874v-9.744h-2.069v24.104zm-10.039 0h8.103v-15.574a37.214 37.214 0 00-6.034-.946v-7.584h-2.069v24.104zm-10.039 0h8.062v-16.602a37.38 37.38 0 00-5.993.685v-8.187h-2.069v24.104zm-10.04 0h8.011v-14.862a36.996 36.996 0 00-5.941 2.485v-11.727h-2.069v12.898l-.001 11.206zm-11.671 0h9.602v-9.849a37.5 37.5 0 00-5.9 5.157v-19.412h-2.07v21.844a37.458 37.458 0 00-1.632 2.26zm46.926 6.911v1.966h6.615v.979h-6.615v1.967h6.768v-.948h7.267v-2.905h-7.267v-1.059h-6.768zm0 5.88v1.968h6.615v.978h-6.615v1.966h6.768v-.875h7.267v-2.905h-7.267v-1.132h-6.768zm0 5.892v1.966h6.768v-1.966h-6.768zm18.59-26.154h-3.169v-1.46c1.21.635 2.324.442 3.169-.224v1.684zm7.431 0h-3.17v-1.46c1.21.635 2.324.443 3.17-.224v1.684zm7.429 0h-3.169v-1.46c1.21.635 2.324.442 3.169-.224v1.684zm7.421 0h-3.17v-1.465c1.209.639 2.323.451 3.17-.211v1.676zm7.429 0h-3.169v-1.465c1.209.639 2.322.451 3.169-.211v1.676zm7.431 0h-3.17v-1.46c1.21.635 2.324.443 3.17-.224v1.684zm7.429 0h-3.169v-1.459c1.21.634 2.324.441 3.169-.225v1.684zm7.431 0h-3.17v-1.46c1.21.635 2.324.443 3.17-.224v1.684zm7.43 0h-3.17v-1.459c1.21.634 2.324.441 3.17-.225v1.684zm7.42 0h-3.171v-1.465c1.21.639 2.324.451 3.171-.211v1.676zm4.26 0v-1.465c1.209.639 2.323.451 3.17-.21v1.675h-3.17zm3.179 0h14.076v-2.262h-13.497a3.563 3.563 0 01-.579.579v1.683zm14.076-16.633h-13.412v-2.182h13.412v2.182zm-14.076 4.155a4.633 4.633 0 00-.755-.822h-.243v-.192c-1.668-1.214-3.867-.849-4.923 1.69-.781 1.894-.48 3.471.291 4.649.066-.233.149-.472.25-.715.945-2.273 2.806-2.803 4.382-2.019v-1.222h15.074v-2.191h-14.076v.822zm14.076 4.702H294.99v2.181h13.413v-2.181zm-205.401 15.247v-.978H90.241v.978h12.761zm1.111 0h12.76v-.978h-12.76v.978zm-14.993 0v-.978H76.36v.978h12.76zm-14.218 0v-.978h-4.658v.978h4.658zm0-8.174h-4.658v1.968h4.658v-1.968zm1.457 0H89.12v1.968H76.36v-1.968zm26.643 0H90.241v1.968h12.761v-1.968zm1.111 0h12.76v1.968h-12.76v-1.968zm-33.869 3.598h4.658v1.967h-4.658v-1.967zm18.876 0H76.36v1.967h12.76v-1.967zm1.12 0h12.762v1.967H90.241v-1.967zm26.633 0h-12.76v1.967h12.76v-1.967zm428.007 4.586h12.761v-.978H544.88v.978zm18.887 0h-4.658v-.978h4.658v.978zm0-6.206h-4.658v-1.968h4.658v1.968zm-18.887 0h12.761v-1.968H544.88v1.968zm-1.11 0h-12.76v-1.968h12.76v1.968zm-26.642 0h12.76v-1.968h-12.76v1.968zm41.981 3.598h4.658v-1.968h-4.658v1.968zm-1.468 0H544.88v-1.968h12.761v1.968zm-26.631 0h12.76v-1.968h-12.76v1.968zm-1.122 0h-12.76v-1.968h12.76v1.968zm-315.171-12.884c1.571-3.509 5.408-2.604 6.632.979a5.271 5.271 0 00.238-3.863c-1.213-3.69-5.178-4.607-6.717-.907-.605 1.466-.561 2.743-.153 3.791zm14.086 1.05c.084.257.147.518.189.779.036-.044.07-.089.104-.135.06-.489.196-1.007.42-1.551.141-.34.302-.64.48-.903a5.243 5.243 0 00-.235-2.124c-1.213-3.69-5.178-4.607-6.717-.907-.445 1.079-.539 2.055-.395 2.914 1.783-2.455 5.069-1.373 6.154 1.927zm7.647 2.293a5.264 5.264 0 00-.217-2.293c-.96-2.919-3.642-4.103-5.482-2.638-.007-.675.13-1.412.457-2.203 1.539-3.7 5.503-2.783 6.716.907.142.429.222.868.249 1.302-.483.387-.907.956-1.227 1.725-.48 1.163-.552 2.206-.357 3.111v.089h-.139zm7.212-2.293c.25.76.311 1.549.218 2.293h.159c-.219-.925-.159-1.999.337-3.2.467-1.124 1.158-1.822 1.928-2.145a5.1 5.1 0 00-.206-.882c-1.213-3.69-5.177-4.607-6.716-.907a5.828 5.828 0 00-.441 1.762c1.753-.684 3.888.542 4.721 3.079zm7.648 2.293c.029-.229.043-.463.041-.699.018.241.055.475.108.699h-.149zm.486-3.2c-.321.777-.459 1.501-.457 2.165-.03-.42-.11-.843-.246-1.258-.716-2.178-2.392-3.39-3.961-3.256.059-.5.195-1.029.424-1.585 1.539-3.7 5.504-2.783 6.717.907.074.227.132.458.174.689-1.05.13-2.041.871-2.651 2.338zm6.716.907c.25.76.311 1.549.218 2.293h.159c-.219-.925-.158-1.999.338-3.2.753-1.812 2.087-2.516 3.396-2.331a5.104 5.104 0 00-.176-.696c-1.213-3.69-5.178-4.607-6.717-.907a5.947 5.947 0 00-.428 1.621c1.326.238 2.608 1.387 3.21 3.22zm7.648 2.293a5.264 5.264 0 00-.217-2.293c-.493-1.5-1.441-2.542-2.496-3.001a5.796 5.796 0 01.447-1.84c1.539-3.7 5.504-2.783 6.717.907.099.3.168.604.21.909-1.527-.633-3.263-.051-4.165 2.118-.496 1.201-.556 2.275-.337 3.2h-.159zm7.213-2.293c.123.374.2.755.236 1.135l.021.016c.013-.635.153-1.323.457-2.058 1.062-2.553 3.279-2.908 4.95-1.669a5.192 5.192 0 00-.252-1.358c-1.213-3.69-5.178-4.607-6.717-.907-.337.817-.473 1.576-.456 2.269.748.556 1.386 1.432 1.761 2.572zm7.514.283a5.658 5.658 0 00-1.006-2.032c-.189-.901-.115-1.938.361-3.092 1.539-3.7 5.504-2.783 6.717.907a5.24 5.24 0 01.242 2.049c-1.687-1.987-4.457-1.973-5.685.978a6.076 6.076 0 00-.405 1.44 4.862 4.862 0 01-.224-.25zm138.401-1.321c-1.565-3.519-5.403-2.622-6.633.955a5.27 5.27 0 01-.231-3.851c1.213-3.69 5.178-4.607 6.717-.907.607 1.472.56 2.752.147 3.803zm-14.09 1.038a5.028 5.028 0 00-.188.768c-.033-.04-.064-.082-.096-.124a5.956 5.956 0 00-.42-1.551 5.107 5.107 0 00-.48-.903 5.246 5.246 0 01.236-2.124c1.213-3.69 5.178-4.607 6.717-.907.447 1.084.539 2.064.392 2.925-1.781-2.469-5.075-1.389-6.161 1.916zm-7.639 2.283a5.28 5.28 0 01.218-2.283c.958-2.914 3.632-4.098 5.473-2.646.005-.673-.133-1.407-.458-2.195-1.539-3.7-5.442-2.956-6.716.907a5.145 5.145 0 00-.248 1.295c.486.386.914.958 1.236 1.732.488 1.183.554 2.243.347 3.158v.032h.148zm-2.941-7.124c.256.621.396 1.208.441 1.758-1.75-.675-3.879.551-4.711 3.083a5.266 5.266 0 00-.219 2.283h-.156c.217-.923.155-1.993-.339-3.19-.47-1.131-1.162-1.847-1.932-2.185.042-.282.108-.564.2-.842 1.274-3.863 5.177-4.607 6.716-.907zm-11.919 7.124a5.28 5.28 0 01.218-2.283c.749-2.268 2.404-3.461 3.955-3.31a6.025 6.025 0 00-.418-1.531c-1.539-3.7-5.503-2.783-6.716.907a5.167 5.167 0 00-.175.69c1.046.134 2.033.875 2.641 2.337.494 1.197.556 2.267.34 3.19h.155zm-4.419-7.124c.235.569.372 1.109.428 1.619-1.329.234-2.616 1.384-3.22 3.222a5.266 5.266 0 00-.219 2.283h-.156c.217-.923.155-1.993-.339-3.19-.751-1.806-2.08-2.512-3.386-2.332.042-.233.1-.466.176-.695 1.274-3.863 5.177-4.607 6.716-.907zm-10.441 7.124a5.28 5.28 0 01.218-2.283c.493-1.5 1.441-2.542 2.496-3.001a5.796 5.796 0 00-.447-1.84c-1.539-3.7-5.443-2.956-6.716.907a5.022 5.022 0 00-.2.842c1.525-.63 3.249.009 4.154 2.185.494 1.197.556 2.267.339 3.19h.156zm-5.897-7.124c.327.792.465 1.529.458 2.204-.743.56-1.381 1.452-1.772 2.637a5.166 5.166 0 00-.236 1.143l-.011.008c-.013-.635-.153-1.323-.456-2.058-1.062-2.553-3.28-2.908-4.951-1.67.023-.452.105-.91.252-1.357 1.213-3.69 5.177-4.607 6.716-.907zm-7.812 3.091c.189-.9.115-1.937-.362-3.091-1.539-3.7-5.443-2.956-6.717.907a5.263 5.263 0 00-.241 2.05c1.686-1.988 4.457-1.974 5.684.977.208.503.339.984.405 1.44.077-.08.152-.164.225-.25l.013-.049.02-.072a5.663 5.663 0 01.973-1.912zm-250.059 23.093h3.456v1.966h-3.456v-1.966zm14.025 0h-9.479v1.966h9.479v-1.966zm.835 0h9.479v1.966h-9.479v-1.966zm19.793 0h-9.478v1.966h9.478v-1.966zm.836 0h9.479v1.966h-9.479v-1.966zm19.793 0h-9.478v1.966h9.478v-1.966zm.836 1.966v-1.966h9.479v1.966h-9.479zm10.315-1.966v1.966h9.479v-1.966h-9.479zm10.314 1.966v-1.966h9.479v1.966h-9.479zm10.314-1.966v1.966h9.48v-1.966h-9.48zm-83.605 2.945h-3.456v1.967h3.456v-1.967zm1.09 0h9.479v1.967h-9.479v-1.967zm19.793 0h-9.479v1.967h9.479v-1.967zm.836 0h9.478v1.967h-9.478v-1.967zm19.793 0h-9.479v1.967h9.479v-1.967zm.836 0h9.478v1.967h-9.478v-1.967zm10.314 0v1.967h9.479v-1.967h-9.479zm10.315 1.967v-1.967h9.479v1.967h-9.479zm10.314-1.967v1.967h9.479v-1.967h-9.479zm10.314 1.967v-1.967h9.48v1.967h-9.48zm-87.061.968h3.456v1.968h-3.456v-1.968zm14.025 0h-9.479v1.968h9.479v-1.968zm.835 0h9.479v1.968h-9.479v-1.968zm19.793 0h-9.478v1.968h9.478v-1.968zm.836 0h9.479v1.968h-9.479v-1.968zm19.793 0h-9.478v1.968h9.478v-1.968zm.836 1.968v-1.968h9.479v1.968h-9.479zm10.315-1.968v1.968h9.479v-1.968h-9.479zm10.314 1.968v-1.968h9.479v1.968h-9.479zm10.314-1.968v1.968h9.48v-1.968h-9.48zm-83.605 2.946h-3.456v1.966h3.456v-1.966zm1.09 0h9.479v1.966h-9.479v-1.966zm19.793 0h-9.479v1.966h9.479v-1.966zm.836 0h9.478v1.966h-9.478v-1.966zm19.793 0h-9.479v1.966h9.479v-1.966zm.836 0h9.478v1.966h-9.478v-1.966zm10.314 0v1.966h9.479v-1.966h-9.479zm10.315 1.966v-1.966h9.479v1.966h-9.479zm10.314-1.966v1.966h9.479v-1.966h-9.479zm10.314 1.966v-1.966h9.48v1.966h-9.48zm-87.061.98h3.456v1.966h-3.456v-1.966zm14.025 0h-9.479v1.966h9.479v-1.966zm.835 0h9.479v1.966h-9.479v-1.966zm19.793 0h-9.478v1.966h9.478v-1.966zm.836 0h9.479v1.966h-9.479v-1.966zm19.793 0h-9.478v1.966h9.478v-1.966zm.836 1.966v-1.966h9.479v1.966h-9.479zm10.315-1.966v1.966h9.479v-1.966h-9.479zm10.314 1.966v-1.966h9.479v1.966h-9.479zm10.314-1.966v1.966h9.48v-1.966h-9.48zm-83.605 2.944h-3.456v1.968h3.456v-1.968zm1.09 0h9.479v1.968h-9.479v-1.968zm19.793 0h-9.479v1.968h9.479v-1.968zm.836 0h9.478v1.968h-9.478v-1.968zm19.793 0h-9.479v1.968h9.479v-1.968zm.836 0h9.478v1.968h-9.478v-1.968zm10.314 0v1.968h9.479v-1.968h-9.479zm10.315 1.968v-1.968h9.479v1.968h-9.479zm10.314-1.968v1.968h9.479v-1.968h-9.479zm10.314 1.968v-1.968h9.48v1.968h-9.48zm-87.061.978h3.456v1.968h-3.456v-1.968zm14.025 0h-9.479v1.968h9.479v-1.968zm.835 0h9.479v1.968h-9.479v-1.968zm19.793 0h-9.478v1.968h9.478v-1.968zm.836 0h9.479v1.968h-9.479v-1.968zm19.793 0h-9.478v1.968h9.478v-1.968zm.836 1.968v-1.968h9.479v1.968h-9.479zm10.315-1.968v1.968h9.479v-1.968h-9.479zm10.314 1.968v-1.968h9.479v1.968h-9.479zm10.314-1.968v1.968h9.48v-1.968h-9.48zm35.265-10.65h-7.42v2.905h7.42v-2.905zm3.496 0h7.42v2.905h-7.42v-2.905zm18.336 0h-7.42v2.905h7.42v-2.905zm3.496 0h7.419v2.905h-7.419v-2.905zm18.335 0h-7.419v2.905h7.419v-2.905zm3.486 0h7.42v2.905h-7.42v-2.905zm18.335 0h-7.419v2.905h7.419v-2.905zm-65.484-5.953h-7.42v2.905h7.42v-2.905zm3.496 0h7.42v2.905h-7.42v-2.905zm18.336 0h-7.42v2.905h7.42v-2.905zm3.496 0h7.419v2.905h-7.419v-2.905zm18.335 0h-7.419v2.905h7.419v-2.905zm3.486 0h7.42v2.905h-7.42v-2.905zm18.335 0h-7.419v2.905h7.419v-2.905zm-65.484-5.952h-7.42v2.905h7.42v-2.905zm3.496 0h7.42v2.905h-7.42v-2.905zm18.336 0h-7.42v2.905h7.42v-2.905zm3.496 0h7.419v2.905h-7.419v-2.905zm18.335 0h-7.419v2.905h7.419v-2.905zm3.486 0h7.42v2.905h-7.42v-2.905zm18.335 0h-7.419v2.905h7.419v-2.905zm-65.484-5.606h-7.42v2.905h7.42v-2.905zm3.496 0h7.42v2.905h-7.42v-2.905zm18.336 0h-7.42v2.905h7.42v-2.905zm3.496 0h7.419v2.905h-7.419v-2.905zm18.335 0h-7.419v2.905h7.419v-2.905zm3.486 0h7.42v2.905h-7.42v-2.905zm18.335 0h-7.419v2.905h7.419v-2.905zm234.593 12.465h3.455v-1.966h-3.455v1.966zm-1.081 0h-9.478v-1.966h9.478v1.966zm-19.793 0h9.479v-1.966H505.6v1.966zm-.836 0h-9.478v-1.966h9.478v1.966zm-19.803 0h9.479v-1.966h-9.479v1.966zm-.836 0h-9.478v-1.966h9.478v1.966zm-19.792 0h9.478v-1.966h-9.478v1.966zm-.836 0h-9.479v-1.966h9.479v1.966zm-19.783 0h9.478v-1.966h-9.478v1.966zm-.836 0H433.4v-1.966h9.478v1.966zm87.051 2.936h-3.455v-1.967h3.455v1.967zm-14.014 0h9.478v-1.967h-9.478v1.967zm-.836 0H505.6v-1.967h9.479v1.967zm-19.793 0h9.478v-1.967h-9.478v1.967zm-.846 0h-9.479v-1.967h9.479v1.967zm-19.793 0h9.478v-1.967h-9.478v1.967zm-.836 0h-9.478v-1.967h9.478v1.967zm-19.793 0h9.479v-1.967h-9.479v1.967zm-.826 0h-9.478v-1.967h9.478v1.967zm-19.792 0h9.478v-1.967H433.4v1.967zm93.074 2.956h3.455v-1.968h-3.455v1.968zm-1.081 0h-9.478v-1.968h9.478v1.968zm-19.793 0h9.479v-1.968H505.6v1.968zm-.836 0h-9.478v-1.968h9.478v1.968zm-19.803 0h9.479v-1.968h-9.479v1.968zm-.836 0h-9.478v-1.968h9.478v1.968zm-19.792 0h9.478v-1.968h-9.478v1.968zm-.836 0h-9.479v-1.968h9.479v1.968zm-19.783 0h9.478v-1.968h-9.478v1.968zm-.836 0H433.4v-1.968h9.478v1.968zm87.051 2.934h-3.455v-1.966h3.455v1.966zm-14.014 0h9.478v-1.966h-9.478v1.966zm-.836 0H505.6v-1.966h9.479v1.966zm-19.793 0h9.478v-1.966h-9.478v1.966zm-.846 0h-9.479v-1.966h9.479v1.966zm-19.793 0h9.478v-1.966h-9.478v1.966zm-.836 0h-9.478v-1.966h9.478v1.966zm-19.793 0h9.479v-1.966h-9.479v1.966zm-.826 0h-9.478v-1.966h9.478v1.966zm-19.792 0h9.478v-1.966H433.4v1.966zm93.074 2.946h3.455v-1.966h-3.455v1.966zm-1.081 0h-9.478v-1.966h9.478v1.966zm-19.793 0h9.479v-1.966H505.6v1.966zm-.836 0h-9.478v-1.966h9.478v1.966zm-19.803 0h9.479v-1.966h-9.479v1.966zm-.836 0h-9.478v-1.966h9.478v1.966zm-19.792 0h9.478v-1.966h-9.478v1.966zm-.836 0h-9.479v-1.966h9.479v1.966zm-19.783 0h9.478v-1.966h-9.478v1.966zm-.836 0H433.4v-1.966h9.478v1.966zm87.051 2.946h-3.455v-1.968h3.455v1.968zm-14.014 0h9.478v-1.968h-9.478v1.968zm-.836 0H505.6v-1.968h9.479v1.968zm-19.793 0h9.478v-1.968h-9.478v1.968zm-.846 0h-9.479v-1.968h9.479v1.968zm-19.793 0h9.478v-1.968h-9.478v1.968zm-.836 0h-9.478v-1.968h9.478v1.968zm-19.793 0h9.479v-1.968h-9.479v1.968zm-.826 0h-9.478v-1.968h9.478v1.968zm-19.792 0h9.478v-1.968H433.4v1.968zm93.074 2.935h3.455v-1.967h-3.455v1.967zm-1.081 0h-9.478v-1.967h9.478v1.967zm-19.793 0h9.479v-1.967H505.6v1.967zm-.836 0h-9.478v-1.967h9.478v1.967zm-19.803 0h9.479v-1.967h-9.479v1.967zm-.836 0h-9.478v-1.967h9.478v1.967zm-19.792 0h9.478v-1.967h-9.478v1.967zm-.836 0h-9.479v-1.967h9.479v1.967zm-19.783 0h9.478v-1.967h-9.478v1.967zm-.836 0H433.4v-1.967h9.478v1.967zm-93.34-26.52h-7.419v-1.966h7.419v1.966zm.663 0h7.42v-1.966h-7.42v1.966zm15.492 0h-7.42v-1.966h7.42v1.966zm.653 0h7.419v-1.966h-7.419v1.966zm15.502 0h-7.421v-1.966h7.421v1.966zm.652 0h7.42v-1.966h-7.42v1.966zm15.502 0h-7.419v-1.966h7.419v1.966zm.652 0h7.42v-1.966h-7.42v1.966zm15.502 0h-7.419v-1.966h7.419v1.966zm.652 0h7.421v-1.966h-7.421v1.966zm8.267-1.966v1.966h2.711v-1.966h-2.711zm2.711 7.562v-1.967h-2.711v1.967h2.711zm-3.557 0h-7.421v-1.967h7.421v1.967zm-15.492 0h7.419v-1.967h-7.419v1.967zm-.663 0h-7.42v-1.967h7.42v1.967zm-15.491 0h7.419v-1.967h-7.419v1.967zm-.663 0h-7.42v-1.967h7.42v1.967zm-15.493 0h7.421v-1.967h-7.421v1.967zm-.662 0h-7.419v-1.967h7.419v1.967zm-15.492 0h7.42v-1.967h-7.42v1.967zm-.652 0h-7.42v-1.967h7.42v1.967zm-15.502 0h7.419v-1.967h-7.419v1.967zm80.956 5.616v-1.967h2.711v1.967h-2.711zm-8.267 0h7.421v-1.967h-7.421v1.967zm-.652 0h-7.419v-1.967h7.419v1.967zm-15.502 0h7.42v-1.967h-7.42v1.967zm-.652 0h-7.419v-1.967h7.419v1.967zm-15.502 0h7.42v-1.967h-7.42v1.967zm-.652 0h-7.421v-1.967h7.421v1.967zm-15.502 0h7.419v-1.967h-7.419v1.967zm-.653 0h-7.42v-1.967h7.42v1.967zm-15.492 0h7.42v-1.967h-7.42v1.967zm-.663 0h-7.419v-1.967h7.419v1.967zm76.248 5.616v-1.968h-2.711v1.968h2.711zm-3.557 0h-7.421v-1.968h7.421v1.968zm-15.492 0h7.419v-1.968h-7.419v1.968zm-.663 0h-7.42v-1.968h7.42v1.968zm-15.491 0h7.419v-1.968h-7.419v1.968zm-.663 0h-7.42v-1.968h7.42v1.968zm-15.493 0h7.421v-1.968h-7.421v1.968zm-.662 0h-7.419v-1.968h7.419v1.968zm-15.492 0h7.42v-1.968h-7.42v1.968zm-.652 0h-7.42v-1.968h7.42v1.968zm-15.502 0h7.419v-1.968h-7.419v1.968z" clip-rule="evenodd"/><path fill="#fff" d="M51.99 153.004v-24.94h-2.538v24.94h2.538zM35.204 153.004v-24.94h-2.538v24.94h2.538zM15.88 128.064h2.537v24.94H15.88v-24.94zM1.63 153.004v-24.94H0v24.94h1.63z"/></svg>