<svg xmlns="http://www.w3.org/2000/svg" fill="none" viewBox="0 0 1784 168"><g clip-path="url(#a)"><path fill="#fff" d="M700.628 123.726h-82.852v17.552h82.852v-17.552z"/><path fill="#E5F6FF" d="M700.628 123.726H688.22v17.552h12.408v-17.552zM627.083 127.263h-5.1v2.154h5.1v-2.154zM642.649 127.263h-13.971v2.154h13.971v-2.154zM657.847 127.263h-13.971v2.154h13.971v-2.154zM673.033 127.263h-13.97v2.154h13.97v-2.154z"/><path fill="#E5F6FF" d="M688.231 127.263h-13.97v2.154h13.97v-2.154zM627.083 131.202h-5.1v2.153h5.1v-2.153zM642.649 131.202h-13.971v2.153h13.971v-2.153zM657.847 131.202h-13.971v2.153h13.971v-2.153zM673.033 131.202h-13.97v2.153h13.97v-2.153zM688.231 131.202h-13.97v2.153h13.97v-2.153zM627.083 135.141h-5.1v2.153h5.1v-2.153zM642.649 135.141h-13.971v2.153h13.971v-2.153zM657.847 135.141h-13.971v2.153h13.971v-2.153zM673.033 135.141h-13.97v2.153h13.97v-2.153zM688.231 135.141h-13.97v2.153h13.97v-2.153z"/><path fill="#E5F6FF" d="M660.614 136.212h-31.98v3.984h31.98v-3.984z"/><path fill="#fff" d="M660.614 136.212H545.938v3.984h114.676v-3.984z"/><path fill="#E5F6FF" d="M660.614 140.207h-66.36v27.305h66.36v-27.305z"/><path fill="#fff" d="M660.904 140.207H539.388v27.305h121.516v-27.305z"/><path fill="#E5F6FF" d="M545.079 140.196h-5.691v27.316h5.691v-27.316zM562.464 140.196h-15.6v27.316h15.6v-27.316zM580.842 140.196h-15.6v27.316h15.6v-27.316zM599.22 140.196h-15.6v27.316h15.6v-27.316zM635.965 140.196h-15.6v27.316h15.6v-27.316zM617.598 140.196h-15.6v27.316h15.6v-27.316zM661.975 140.196h-23.232v27.316h23.232v-27.316z"/><path fill="#fff" d="M1083.64 141.278h82.86v-17.552h-82.86v17.552z"/><path fill="#E5F6FF" d="M1083.64 141.278h12.41v-17.552h-12.41v17.552zM1157.2 129.428h5.1v-2.154h-5.1v2.154zM1141.62 129.428h13.97v-2.154h-13.97v2.154zM1126.44 129.428h13.97v-2.154h-13.97v2.154zM1111.24 129.428h13.97v-2.154h-13.97v2.154z"/><path fill="#E5F6FF" d="M1096.05 129.428h13.97v-2.154h-13.97v2.154zM1157.2 133.367h5.1v-2.154h-5.1v2.154zM1141.62 133.367h13.97v-2.154h-13.97v2.154zM1126.44 133.367h13.97v-2.154h-13.97v2.154zM1111.24 133.367h13.97v-2.154h-13.97v2.154zM1096.05 133.367h13.97v-2.154h-13.97v2.154zM1157.2 137.306h5.1v-2.154h-5.1v2.154zM1141.62 137.306h13.97v-2.154h-13.97v2.154zM1126.44 137.306h13.97v-2.154h-13.97v2.154zM1111.24 137.306h13.97v-2.154h-13.97v2.154zM1096.05 137.306h13.97v-2.154h-13.97v2.154z"/><path fill="#E5F6FF" d="M1123.66 140.207h31.98v-3.984h-31.98v3.984z"/><path fill="#fff" d="M1123.66 140.207h114.68v-3.984h-114.68v3.984z"/><path fill="#E5F6FF" d="M1123.66 167.512h66.36v-27.305h-66.36v27.305z"/><path fill="#fff" d="M1123.38 167.512h121.52v-27.305h-121.52v27.305z"/><path fill="#E5F6FF" d="M1239.19 167.512h5.7v-27.316h-5.7v27.316zM1221.82 167.512h15.6v-27.316h-15.6v27.316zM1203.43 167.512h15.6v-27.316h-15.6v27.316zM1185.05 167.512h15.6v-27.316h-15.6v27.316zM1148.31 167.512h15.6v-27.316h-15.6v27.316zM1166.69 167.512h15.6v-27.316h-15.6v27.316zM1122.31 167.512h23.23v-27.316h-23.23v27.316z"/><path fill="#fff" d="M916.97 167.155h166.67v-58.638H916.97v58.638z"/><path fill="#E5F6FF" d="M1076.86 158.819c0-22.54-18.27-40.806-40.81-40.806-22.54 0-40.803 18.266-40.803 40.806h81.613z"/><path fill="#E5F6FF" d="M1065.97 136.223h2.26v-26.39h-2.26v26.39zM1054.98 136.223h2.26v-26.39h-2.26v26.39z"/><path fill="#fff" d="M1057.25 136.223h2.27v-26.39h-2.27v26.39zM1046.21 136.223h2.26v-26.39h-2.26v26.39zM1035.17 136.223h2.27v-26.39h-2.27v26.39zM1024.14 136.223h2.26v-26.39h-2.26v26.39zM1013.1 136.223h2.27v-26.39h-2.27v26.39z"/><path fill="#E5F6FF" d="M1043.99 136.223h2.26v-26.39h-2.26v26.39zM1033.01 136.223h2.26v-26.39h-2.26v26.39zM1022.02 136.223h2.26v-26.39h-2.26v26.39zM1011.02 136.223h2.27v-26.39h-2.27v26.39zM986.51 98.507H797.763v13.089H986.51V98.507z"/><path fill="#E5F6FF" d="M867.314 167.523h49.667V95.361h-49.667v72.162z"/><path fill="#fff" d="M878.518 91.98h-2.567v56.529h2.567v-56.53zM884.376 91.98h-2.567v56.529h2.567v-56.53zM890.245 91.98h-2.566v56.529h2.566v-56.53zM905.767 148.498h2.566v-56.53h-2.566v56.53zM899.897 148.498h2.567v-56.53h-2.567v56.53zM894.039 148.498h2.567v-56.53h-2.567v56.53zM867.314 167.512h49.667v-17.296h-49.667v17.296zM867.314 108.505H700.64v58.638h166.674v-58.638z"/><path fill="#E5F6FF" d="M707.424 158.819c0-22.54 18.266-40.806 40.807-40.806 22.54 0 40.806 18.266 40.806 40.806h-81.613z"/><path fill="#E5F6FF" d="M718.304 109.822h-2.266v26.39h2.266v-26.39zM729.295 109.822h-2.265v26.39h2.265v-26.39z"/><path fill="#fff" d="M727.029 109.822h-2.265v26.39h2.265v-26.39zM738.065 109.822H735.8v26.39h2.265v-26.39zM749.112 109.822h-2.265v26.39h2.265v-26.39zM760.148 109.822h-2.265v26.39h2.265v-26.39zM771.184 109.822h-2.265v26.39h2.265v-26.39z"/><path fill="#E5F6FF" d="M740.286 109.822h-2.265v26.39h2.265v-26.39zM751.277 109.822h-2.265v26.39h2.265v-26.39zM762.268 109.822h-2.265v26.39h2.265v-26.39zM773.259 109.822h-2.265v26.39h2.265v-26.39zM786.214 119.262h-3.47v3.66h3.47v-3.66z"/><path fill="#E5F6FF" d="M780.323 115.111c-1.105 2.678-.235 4.776 1.171 6.104 3.95 3.716 7.51-1.071 6.182-5.111-1.328-4.039-5.668-5.043-7.353-.993zM795.152 119.262h-3.47v3.66h3.47v-3.66z"/><path fill="#E5F6FF" d="M789.272 115.111c-1.105 2.678-.235 4.776 1.171 6.104 3.951 3.716 7.51-1.071 6.182-5.111-1.328-4.039-5.668-5.043-7.353-.993zM804.101 119.262h-3.47v3.66h3.47v-3.66z"/><path fill="#E5F6FF" d="M798.21 115.111c-1.105 2.678-.235 4.776 1.171 6.104 3.951 3.716 7.51-1.071 6.182-5.111-1.328-4.039-5.668-5.043-7.353-.993zM813.051 119.262h-3.471v3.66h3.471v-3.66z"/><path fill="#E5F6FF" d="M807.159 115.111c-1.105 2.678-.234 4.776 1.171 6.104 3.951 3.716 7.51-1.071 6.182-5.111-1.328-4.039-5.668-5.043-7.353-.993zM821.988 119.262h-3.47v3.66h3.47v-3.66z"/><path fill="#E5F6FF" d="M816.108 115.111c-1.105 2.678-.234 4.776 1.172 6.104 3.95 3.716 7.509-1.071 6.181-5.111-1.327-4.039-5.668-5.043-7.353-.993zM830.938 119.262h-3.471v3.66h3.471v-3.66z"/><path fill="#E5F6FF" d="M825.057 115.111c-1.105 2.678-.234 4.776 1.172 6.104 3.95 3.716 7.509-1.071 6.182-5.111-1.328-4.039-5.669-5.043-7.354-.993zM839.887 119.262h-3.47v3.66h3.47v-3.66z"/><path fill="#E5F6FF" d="M833.995 115.111c-1.105 2.678-.234 4.776 1.172 6.104 3.95 3.716 7.509-1.071 6.182-5.111-1.328-4.039-5.669-5.043-7.354-.993zM848.836 119.262h-3.47v3.66h3.47v-3.66z"/><path fill="#E5F6FF" d="M842.944 115.111c-1.104 2.678-.234 4.776 1.172 6.104 3.95 3.716 7.51-1.071 6.182-5.111-1.328-4.039-5.669-5.043-7.354-.993zM857.774 119.262h-3.47v3.66h3.47v-3.66z"/><path fill="#E5F6FF" d="M851.893 115.111c-1.104 2.678-.234 4.776 1.172 6.104 3.95 3.716 7.51-1.071 6.182-5.111-1.328-4.039-5.669-5.043-7.354-.993zM866.723 119.262h-3.47v3.66h3.47v-3.66z"/><path fill="#E5F6FF" d="M860.831 115.111c-1.104 2.678-.234 4.776 1.172 6.104 3.95 3.716 7.51-1.071 6.182-5.111-1.328-4.039-5.669-5.043-7.354-.993zM875.672 119.262h-3.47v3.66h3.47v-3.66z"/><path fill="#E5F6FF" d="M869.781 115.111c-1.105 2.678-.235 4.776 1.171 6.104 3.95 3.716 7.51-1.071 6.182-5.111-1.328-4.039-5.669-5.043-7.353-.993zM777.845 124.484h-3.47v3.66h3.47v-3.66z"/><path fill="#fff" d="M771.965 119.418c-1.105 2.679-.234 4.776 1.172 6.104 3.95 3.716 7.509-1.071 6.181-5.11-1.328-4.04-5.668-5.044-7.353-.994z"/><path fill="#E5F6FF" d="M785.98 124.484h-3.47v3.66h3.47v-3.66z"/><path fill="#fff" d="M780.088 119.418c-1.104 2.679-.234 4.776 1.172 6.104 3.95 3.716 7.51-1.071 6.182-5.11-1.328-4.04-5.669-5.044-7.354-.994z"/><path fill="#E5F6FF" d="M794.115 124.484h-3.471v3.66h3.471v-3.66z"/><path fill="#fff" d="M788.223 119.418c-1.105 2.679-.235 4.776 1.171 6.104 3.951 3.716 7.51-1.071 6.182-5.11-1.328-4.04-5.668-5.044-7.353-.994z"/><path fill="#E5F6FF" d="M802.249 124.484h-3.47v3.66h3.47v-3.66z"/><path fill="#fff" d="M796.357 119.418c-1.104 2.679-.234 4.776 1.172 6.104 3.95 3.716 7.51-1.071 6.182-5.11-1.328-4.04-5.669-5.044-7.354-.994z"/><path fill="#E5F6FF" d="M810.373 124.484h-3.471v3.66h3.471v-3.66z"/><path fill="#fff" d="M804.492 119.418c-1.105 2.679-.234 4.776 1.172 6.104 3.95 3.716 7.509-1.071 6.181-5.11-1.327-4.04-5.668-5.044-7.353-.994z"/><path fill="#E5F6FF" d="M818.507 124.484h-3.47v3.66h3.47v-3.66z"/><path fill="#fff" d="M812.626 119.418c-1.104 2.679-.234 4.776 1.172 6.104 3.95 3.716 7.51-1.071 6.182-5.11-1.328-4.04-5.669-5.044-7.354-.994z"/><path fill="#E5F6FF" d="M826.642 124.484h-3.471v3.66h3.471v-3.66z"/><path fill="#fff" d="M820.75 119.418c-1.105 2.679-.234 4.776 1.172 6.104 3.95 3.716 7.509-1.071 6.181-5.11-1.327-4.04-5.668-5.044-7.353-.994z"/><path fill="#E5F6FF" d="M834.776 124.484h-3.47v3.66h3.47v-3.66z"/><path fill="#fff" d="M828.885 119.418c-1.105 2.679-.235 4.776 1.171 6.104 3.95 3.716 7.51-1.071 6.182-5.11-1.328-4.04-5.669-5.044-7.353-.994z"/><path fill="#E5F6FF" d="M842.911 124.484h-3.471v3.66h3.471v-3.66z"/><path fill="#fff" d="M837.019 119.418c-1.105 2.679-.234 4.776 1.172 6.104 3.95 3.716 7.509-1.071 6.182-5.11-1.328-4.04-5.669-5.044-7.354-.994z"/><path fill="#E5F6FF" d="M851.045 124.484h-3.47v3.66h3.47v-3.66z"/><path fill="#fff" d="M845.154 119.418c-1.105 2.679-.235 4.776 1.171 6.104 3.95 3.716 7.51-1.071 6.182-5.11-1.328-4.04-5.668-5.044-7.353-.994z"/><path fill="#E5F6FF" d="M859.169 124.484h-3.471v3.66h3.471v-3.66z"/><path fill="#fff" d="M853.288 119.418c-1.105 2.679-.234 4.776 1.172 6.104 3.95 3.716 7.509-1.071 6.182-5.11-1.328-4.04-5.669-5.044-7.354-.994z"/><path fill="#E5F6FF" d="M867.303 124.484h-3.47v3.66h3.47v-3.66z"/><path fill="#fff" d="M861.423 119.418c-1.105 2.679-.235 4.776 1.171 6.104 3.951 3.716 7.51-1.071 6.182-5.11-1.328-4.04-5.668-5.044-7.353-.994z"/><path fill="#E5F6FF" d="M998.07 122.911h3.47v-3.66h-3.47v3.66z"/><path fill="#E5F6FF" d="M1003.96 115.111c1.11 2.678.24 4.776-1.17 6.104-3.95 3.716-7.51-1.071-6.182-5.111 1.328-4.039 5.672-5.043 7.352-.993zM989.121 122.911h3.47v-3.66h-3.47v3.66z"/><path fill="#E5F6FF" d="M995.013 115.111c1.104 2.678.234 4.776-1.172 6.104-3.95 3.716-7.51-1.071-6.182-5.111 1.328-4.039 5.669-5.043 7.354-.993zM980.172 122.911h3.47v-3.66h-3.47v3.66z"/><path fill="#E5F6FF" d="M986.063 115.111c1.105 2.678.235 4.776-1.171 6.104-3.95 3.716-7.51-1.071-6.182-5.111 1.395-4.229 5.668-5.043 7.353-.993zM971.234 122.911h3.47v-3.66h-3.47v3.66z"/><path fill="#E5F6FF" d="M977.114 115.111c1.105 2.678.235 4.776-1.171 6.104-3.95 3.716-7.51-1.071-6.182-5.111 1.395-4.229 5.668-5.043 7.353-.993zM962.285 122.911h3.47v-3.66h-3.47v3.66z"/><path fill="#E5F6FF" d="M968.176 115.111c1.105 2.678.235 4.776-1.171 6.104-3.95 3.716-7.51-1.071-6.182-5.111 1.328-4.039 5.668-5.043 7.353-.993zM953.347 122.911h3.47v-3.66h-3.47v3.66z"/><path fill="#E5F6FF" d="M959.227 115.111c1.105 2.678.235 4.776-1.171 6.104-3.951 3.716-7.51-1.071-6.182-5.111 1.395-4.229 5.668-5.043 7.353-.993zM944.386 122.911h3.471v-3.66h-3.471v3.66z"/><path fill="#E5F6FF" d="M950.278 115.111c1.105 2.678.234 4.776-1.172 6.104-3.95 3.716-7.509-1.071-6.181-5.111 1.394-4.229 5.668-5.043 7.353-.993zM935.448 122.911h3.471v-3.66h-3.471v3.66z"/><path fill="#E5F6FF" d="M941.34 115.111c1.105 2.678.234 4.776-1.171 6.104-3.951 3.716-7.51-1.071-6.182-5.111 1.328-4.039 5.668-5.043 7.353-.993zM926.51 122.911h3.471v-3.66h-3.471v3.66z"/><path fill="#E5F6FF" d="M932.391 115.111c1.105 2.678.234 4.776-1.172 6.104-3.95 3.716-7.509-1.071-6.182-5.111 1.395-4.229 5.669-5.043 7.354-.993zM917.55 122.911h3.471v-3.66h-3.471v3.66z"/><path fill="#E5F6FF" d="M923.442 115.111c1.105 2.678.234 4.776-1.172 6.104-3.95 3.716-7.51-1.071-6.182-5.111 1.395-4.229 5.669-5.043 7.354-.993zM908.612 122.911h3.47v-3.66h-3.47v3.66z"/><path fill="#E5F6FF" d="M914.493 115.111c1.104 2.678.234 4.776-1.172 6.104-3.95 3.716-7.51-1.071-6.182-5.111 1.328-4.039 5.669-5.043 7.354-.993zM1006.44 128.156h3.47v-3.66h-3.47v3.66z"/><path fill="#fff" d="M1012.32 119.418c1.1 2.679.23 4.776-1.17 6.104-3.95 3.716-7.51-1.071-6.18-5.11 1.32-4.04 5.66-5.044 7.35-.994z"/><path fill="#E5F6FF" d="M998.293 128.156h3.467v-3.66h-3.467v3.66z"/><path fill="#fff" d="M1004.18 119.418c1.11 2.679.24 4.776-1.17 6.104-3.947 3.716-7.506-1.071-6.179-5.11 1.328-4.04 5.669-5.044 7.349-.994z"/><path fill="#E5F6FF" d="M990.17 128.156h3.47v-3.66h-3.47v3.66z"/><path fill="#fff" d="M996.05 119.418c1.105 2.679.235 4.776-1.171 6.104-3.95 3.716-7.51-1.071-6.182-5.11 1.328-4.04 5.668-5.044 7.353-.994z"/><path fill="#E5F6FF" d="M982.035 128.156h3.47v-3.66h-3.47v3.66z"/><path fill="#fff" d="M987.927 119.418c1.105 2.679.234 4.776-1.172 6.104-3.95 3.716-7.509-1.071-6.182-5.11 1.328-4.04 5.669-5.044 7.354-.994z"/><path fill="#E5F6FF" d="M973.901 128.156h3.47v-3.66h-3.47v3.66z"/><path fill="#fff" d="M979.792 119.418c1.105 2.679.235 4.776-1.171 6.104-3.95 3.716-7.51-1.071-6.182-5.11 1.328-4.04 5.668-5.044 7.353-.994z"/><path fill="#E5F6FF" d="M965.777 128.156h3.471v-3.66h-3.471v3.66z"/><path fill="#fff" d="M971.658 119.419c1.104 2.678.234 4.775-1.172 6.103-3.95 3.716-7.51-1.071-6.182-5.11 1.395-4.229 5.669-5.044 7.354-.993z"/><path fill="#E5F6FF" d="M957.631 128.156h3.471v-3.66h-3.471v3.66z"/><path fill="#fff" d="M963.523 119.418c1.105 2.679.235 4.776-1.171 6.104-3.951 3.716-7.51-1.071-6.182-5.11 1.328-4.04 5.668-5.044 7.353-.994z"/><path fill="#E5F6FF" d="M949.497 128.156h3.47v-3.66h-3.47v3.66z"/><path fill="#fff" d="M955.389 119.418c1.104 2.679.234 4.776-1.172 6.104-3.95 3.716-7.51-1.071-6.182-5.11 1.328-4.04 5.669-5.044 7.354-.994z"/><path fill="#E5F6FF" d="M941.374 128.156h3.47v-3.66h-3.47v3.66z"/><path fill="#fff" d="M947.254 119.419c1.105 2.678.234 4.775-1.172 6.103-3.95 3.716-7.509-1.071-6.181-5.11 1.394-4.229 5.668-5.044 7.353-.993z"/><path fill="#E5F6FF" d="M933.239 128.156h3.47v-3.66h-3.47v3.66z"/><path fill="#fff" d="M939.131 119.418c1.104 2.679.234 4.776-1.172 6.104-3.95 3.716-7.51-1.071-6.182-5.11 1.328-4.04 5.669-5.044 7.354-.994z"/><path fill="#E5F6FF" d="M925.104 128.156h3.471v-3.66h-3.471v3.66z"/><path fill="#fff" d="M930.996 119.418c1.105 2.679.234 4.776-1.171 6.104-3.951 3.716-7.51-1.071-6.182-5.11 1.328-4.04 5.668-5.044 7.353-.994z"/><path fill="#E5F6FF" d="M916.981 128.156h3.47v-3.66h-3.47v3.66z"/><path fill="#fff" d="M922.862 119.418c1.104 2.679.234 4.776-1.172 6.104-3.95 3.716-7.51-1.071-6.182-5.11 1.328-4.04 5.669-5.044 7.354-.994zM776.942 140.207H657.679v27.305h119.263v-27.305zM792.173 136.212h-137.83v3.984h137.83v-3.984z"/><path fill="#E5F6FF" d="M792.184 140.207H657.679v2.153h134.505v-2.153zM662.801 143.778h-3.783v2.153h3.783v-2.153zM674.372 143.778h-10.377v2.153h10.377v-2.153zM685.665 143.778h-10.378v2.153h10.378v-2.153zM696.957 143.778H686.58v2.153h10.377v-2.153zM708.25 143.778h-10.378v2.153h10.378v-2.153zM719.542 143.778h-10.377v2.153h10.377v-2.153zM730.835 143.778h-10.378v2.153h10.378v-2.153zM742.127 143.778H731.75v2.153h10.377v-2.153zM753.419 143.778h-10.377v2.153h10.377v-2.153zM764.712 143.778h-10.378v2.153h10.378v-2.153zM776.004 143.778h-10.377v2.153h10.377v-2.153zM662.801 147.002h-3.783v2.154h3.783v-2.154zM674.372 147.002h-10.377v2.154h10.377v-2.154zM685.665 147.002h-10.378v2.154h10.378v-2.154zM696.957 147.002H686.58v2.154h10.377v-2.154zM708.25 147.002h-10.378v2.154h10.378v-2.154zM719.542 147.002h-10.377v2.154h10.377v-2.154zM730.835 147.002h-10.378v2.154h10.378v-2.154zM742.127 147.002H731.75v2.154h10.377v-2.154zM753.419 147.002h-10.377v2.154h10.377v-2.154zM764.712 147.002h-10.378v2.154h10.378v-2.154zM776.004 147.002h-10.377v2.154h10.377v-2.154zM662.801 150.216h-3.783v2.154h3.783v-2.154zM674.372 150.216h-10.377v2.154h10.377v-2.154zM685.665 150.216h-10.378v2.154h10.378v-2.154zM696.957 150.216H686.58v2.154h10.377v-2.154zM708.25 150.216h-10.378v2.154h10.378v-2.154zM719.542 150.216h-10.377v2.154h10.377v-2.154zM730.835 150.216h-10.378v2.154h10.378v-2.154zM742.127 150.216H731.75v2.154h10.377v-2.154zM753.419 150.216h-10.377v2.154h10.377v-2.154zM764.712 150.216h-10.378v2.154h10.378v-2.154zM776.004 150.216h-10.377v2.154h10.377v-2.154zM662.801 153.441h-3.783v2.153h3.783v-2.153zM674.372 153.441h-10.377v2.153h10.377v-2.153zM685.665 153.441h-10.378v2.153h10.378v-2.153zM696.957 153.441H686.58v2.153h10.377v-2.153zM708.25 153.441h-10.378v2.153h10.378v-2.153zM719.542 153.441h-10.377v2.153h10.377v-2.153zM730.835 153.441h-10.378v2.153h10.378v-2.153zM742.127 153.441H731.75v2.153h10.377v-2.153zM753.419 153.441h-10.377v2.153h10.377v-2.153zM764.712 153.441h-10.378v2.153h10.378v-2.153zM776.004 153.441h-10.377v2.153h10.377v-2.153zM662.801 156.666h-3.783v2.153h3.783v-2.153zM674.372 156.666h-10.377v2.153h10.377v-2.153zM685.665 156.666h-10.378v2.153h10.378v-2.153zM696.957 156.666H686.58v2.153h10.377v-2.153zM708.25 156.666h-10.378v2.153h10.378v-2.153zM719.542 156.666h-10.377v2.153h10.377v-2.153zM730.835 156.666h-10.378v2.153h10.378v-2.153zM742.127 156.666H731.75v2.153h10.377v-2.153zM753.419 156.666h-10.377v2.153h10.377v-2.153zM764.712 156.666h-10.378v2.153h10.378v-2.153zM776.004 156.666h-10.377v2.153h10.377v-2.153zM662.801 159.89h-3.783v2.154h3.783v-2.154zM674.372 159.89h-10.377v2.154h10.377v-2.154zM685.665 159.89h-10.378v2.154h10.378v-2.154zM696.957 159.89H686.58v2.154h10.377v-2.154zM708.25 159.89h-10.378v2.154h10.378v-2.154zM719.542 159.89h-10.377v2.154h10.377v-2.154zM730.835 159.89h-10.378v2.154h10.378v-2.154zM742.127 159.89H731.75v2.154h10.377v-2.154zM753.419 159.89h-10.377v2.154h10.377v-2.154zM764.712 159.89h-10.378v2.154h10.378v-2.154zM776.004 159.89h-10.377v2.154h10.377v-2.154zM662.801 163.115h-3.783v2.154h3.783v-2.154zM674.372 163.115h-10.377v2.154h10.377v-2.154zM685.665 163.115h-10.378v2.154h10.378v-2.154zM696.957 163.115H686.58v2.154h10.377v-2.154zM708.25 163.115h-10.378v2.154h10.378v-2.154zM719.542 163.115h-10.377v2.154h10.377v-2.154zM730.835 163.115h-10.378v2.154h10.378v-2.154zM742.127 163.115H731.75v2.154h10.377v-2.154zM753.419 163.115h-10.377v2.154h10.377v-2.154zM764.712 163.115h-10.378v2.154h10.378v-2.154zM776.004 163.115h-10.377v2.154h10.377v-2.154zM882.724 98.507H868.04v29.526h14.684V98.507z"/><path fill="#fff" d="M912.674 73.959H871.61v24.548h41.064V73.96zM882.724 121.907h-16.503v3.649h16.503v-3.649zM882.724 115.87h-16.503v3.649h16.503v-3.649zM882.724 109.822h-16.503v3.649h16.503v-3.649zM882.724 103.785h-16.503v3.649h16.503v-3.649zM906.202 62.968h-28.131v10.99h28.131v-10.99z"/><path fill="#fff" d="M906.202 70.544h-28.131v3.415h28.131v-3.415zM903.356 48.082h-22.417v10.991h22.417v-10.99zM906.202 62.968h-28.131l2.868-3.895h22.406l2.857 3.895zM903.345 48.082h-22.406l3.995-3.894h14.417l3.994 3.894zM899.351 44.188h-14.417L887.5 33.62h9.273l2.578 10.567z"/><path fill="#E5F6FF" d="M908.579 91.98h-32.884v6.527h32.884V91.98zM908.579 86.233h-32.884v1.35h32.884v-1.35z"/><path fill="#fff" d="M877.335 81.055h-58.181v17.452h58.181V81.055z"/><path fill="#E5F6FF" d="M877.335 94.3h-58.181v2.947h58.181V94.3z"/><path fill="#E5F6FF" d="M820.159 82.74h-1.005v11.572h1.005V82.74zM823.093 82.74h-1.004v11.572h1.004V82.74zM826.039 82.74h-1.004v11.572h1.004V82.74zM828.974 82.74h-1.005v11.572h1.005V82.74zM831.92 82.74h-1.005v11.572h1.005V82.74zM834.865 82.74h-1.004v11.572h1.004V82.74zM837.8 82.74h-1.004v11.572h1.004V82.74zM840.746 82.74h-1.004v11.572h1.004V82.74zM843.681 82.74h-1.005v11.572h1.005V82.74zM846.627 82.74h-1.005v11.572h1.005V82.74zM849.561 82.74h-1.004v11.572h1.004V82.74zM852.507 82.74h-1.004v11.572h1.004V82.74zM855.442 82.74h-1.004v11.572h1.004V82.74zM858.388 82.74h-1.005v11.572h1.005V82.74zM861.333 82.74h-1.004v11.572h1.004V82.74zM864.268 82.74h-1.004v11.572h1.004V82.74zM867.214 82.74h-1.004v11.572h1.004V82.74zM870.149 82.74h-1.005v11.572h1.005V82.74zM873.095 82.74h-1.005v11.572h1.005V82.74zM876.029 82.74h-1.004v11.572h1.004V82.74z"/><path fill="#fff" d="M877.335 94.3h-60.111V96.4h60.111V94.3zM906.95 98.496h58.18V81.044h-58.18v17.452z"/><path fill="#E5F6FF" d="M906.95 97.258h58.18v-2.946h-58.18v2.946zM964.126 94.3h1.004V82.73h-1.004V94.3zM961.18 94.3h1.004V82.73h-1.004V94.3zM958.245 94.3h1.005V82.73h-1.005V94.3zM955.299 94.3h1.005V82.73h-1.005V94.3zM952.365 94.3h1.004V82.73h-1.004V94.3zM949.419 94.3h1.004V82.73h-1.004V94.3zM946.473 94.3h1.004V82.73h-1.004V94.3zM943.538 94.3h1.005V82.73h-1.005V94.3zM940.592 94.3h1.005V82.73h-1.005V94.3zM937.658 94.3h1.004V82.73h-1.004V94.3zM934.712 94.3h1.004V82.73h-1.004V94.3zM931.777 94.3h1.004V82.73h-1.004V94.3zM928.831 94.3h1.005V82.73h-1.005V94.3zM925.897 94.3h1.004V82.73h-1.004V94.3zM922.951 94.3h1.004V82.73h-1.004V94.3zM920.005 94.3h1.004V82.73h-1.004V94.3zM917.07 94.3h1.005V82.73h-1.005V94.3zM914.124 94.3h1.005V82.73h-1.005V94.3zM911.19 94.3h1.004V82.73h-1.004V94.3zM908.244 94.3h1.004V82.73h-1.004V94.3z"/><path fill="#fff" d="M906.938 96.41h60.111v-2.098h-60.111v2.098zM868.04 107.345h-85.263v4.251h85.263v-4.251zM882.736 128.033H771.329v4.251h111.407v-4.251zM873.206 132.284h-100.17v35.228h100.17v-35.228z"/><path fill="#fff" d="M873.206 132.284h-100.17v35.228h100.17v-35.228z"/><path fill="#E5F6FF" d="M894.374 59.073h-4.464v-8.268l2.232-1.54 2.232 1.54v8.268zM895.088 73.959h-5.892V63.046l2.946-2.031 2.946 2.03V73.96zM895.847 89.781h-7.409V77.998l3.704-2.544 3.705 2.544v11.783z"/><path fill="#fff" d="M896.773 29.124H887.5v4.497h9.273v-4.497z"/><path fill="#fff" d="M895.11 22.563h-5.936v7.163h5.936v-7.163zM893.068 3.56L892.142 0l-.937 3.56-1.138 19.002h4.151l-1.15-19.002z"/><path fill="#E5F6FF" d="M790.176 104.254h-3.024v3.091h3.024v-3.091z"/><path fill="#fff" d="M785.043 100.739c-.971 2.265-.201 4.04 1.015 5.155 3.448 3.136 6.539-.903 5.379-4.318-1.161-3.414-4.944-4.262-6.405-.837h.011z"/><path fill="#E5F6FF" d="M795.744 104.254h-3.024v3.091h3.024v-3.091z"/><path fill="#fff" d="M790.611 100.739c-.971 2.265-.201 4.04 1.015 5.155 3.448 3.136 6.539-.903 5.379-4.318-1.161-3.414-4.944-4.262-6.405-.837h.011z"/><path fill="#E5F6FF" d="M801.301 104.254h-3.024v3.091h3.024v-3.091z"/><path fill="#fff" d="M796.179 100.739c-.971 2.265-.201 4.04 1.015 5.155 3.448 3.136 6.539-.903 5.379-4.318-1.161-3.414-4.943-4.262-6.405-.837h.011z"/><path fill="#E5F6FF" d="M806.869 104.254h-3.024v3.091h3.024v-3.091z"/><path fill="#fff" d="M801.736 100.739c-.971 2.265-.201 4.04 1.015 5.155 3.448 3.136 6.539-.903 5.379-4.318-1.161-3.414-4.944-4.262-6.405-.837h.011z"/><path fill="#E5F6FF" d="M812.437 104.254h-3.024v3.091h3.024v-3.091z"/><path fill="#fff" d="M807.304 100.739c-.971 2.265-.201 4.04 1.015 5.155 3.448 3.136 6.539-.903 5.379-4.318-1.161-3.414-4.943-4.262-6.405-.837h.011z"/><path fill="#E5F6FF" d="M818.005 104.254h-3.024v3.091h3.024v-3.091z"/><path fill="#fff" d="M812.872 100.739c-.971 2.265-.201 4.04 1.015 5.155 3.448 3.136 6.539-.903 5.379-4.318-1.161-3.414-4.943-4.262-6.405-.837h.011z"/><path fill="#E5F6FF" d="M823.562 104.254h-3.024v3.091h3.024v-3.091z"/><path fill="#fff" d="M818.44 100.739c-.971 2.265-.201 4.04 1.016 5.155 3.448 3.136 6.538-.903 5.378-4.318-1.16-3.414-4.943-4.262-6.405-.837h.011z"/><path fill="#E5F6FF" d="M829.13 104.254h-3.024v3.091h3.024v-3.091z"/><path fill="#fff" d="M823.997 100.739c-.971 2.265-.201 4.04 1.015 5.155 3.448 3.136 6.539-.903 5.379-4.318-1.161-3.414-4.943-4.262-6.405-.837h.011z"/><path fill="#E5F6FF" d="M834.698 104.254h-3.024v3.091h3.024v-3.091z"/><path fill="#fff" d="M829.565 100.739c-.971 2.265-.201 4.04 1.016 5.155 3.448 3.136 6.539-.903 5.378-4.318-1.16-3.414-4.943-4.262-6.405-.837h.011z"/><path fill="#E5F6FF" d="M840.266 104.254h-3.024v3.091h3.024v-3.091z"/><path fill="#fff" d="M835.133 100.739c-.971 2.265-.201 4.04 1.016 5.155 3.448 3.136 6.539-.903 5.378-4.318-1.16-3.414-4.943-4.262-6.405-.837h.011z"/><path fill="#E5F6FF" d="M845.823 104.254h-3.024v3.091h3.024v-3.091z"/><path fill="#fff" d="M840.701 100.739c-.97 2.265-.2 4.04 1.016 5.155 3.448 3.136 6.539-.903 5.378-4.318-1.16-3.414-4.943-4.262-6.405-.837h.011z"/><path fill="#E5F6FF" d="M851.391 104.254h-3.024v3.091h3.024v-3.091z"/><path fill="#fff" d="M846.258 100.739c-.971 2.265-.201 4.04 1.016 5.155 3.448 3.136 6.539-.903 5.378-4.318-1.16-3.414-4.943-4.262-6.405-.837h.011z"/><path fill="#E5F6FF" d="M856.959 104.254h-3.024v3.091h3.024v-3.091z"/><path fill="#fff" d="M851.826 100.739c-.97 2.265-.2 4.04 1.016 5.155 3.448 3.136 6.539-.903 5.378-4.318-1.16-3.414-4.943-4.262-6.405-.837h.011z"/><path fill="#E5F6FF" d="M862.527 104.254h-3.023v3.091h3.023v-3.091z"/><path fill="#fff" d="M857.395 100.739c-.971 2.265-.201 4.04 1.015 5.155 3.448 3.136 6.539-.903 5.378-4.318-1.16-3.414-4.943-4.262-6.405-.837h.012z"/><path fill="#E5F6FF" d="M868.084 104.254h-3.024v3.091h3.024v-3.091z"/><path fill="#fff" d="M862.963 100.739c-.971 2.265-.201 4.04 1.015 5.155 3.448 3.136 6.539-.903 5.378-4.318-1.216-3.57-4.943-4.262-6.405-.837h.012z"/><path fill="#E5F6FF" d="M780.702 164.376h-3.024v3.091h3.024v-3.091z"/><path fill="#E5F6FF" d="M775.58 160.861c-.971 2.265-.201 4.04 1.016 5.155 3.448 3.136 6.539-.903 5.378-4.318-1.16-3.414-4.943-4.262-6.405-.837h.011zM788 164.376h-3.024v3.091H788v-3.091z"/><path fill="#E5F6FF" d="M782.878 160.861c-.971 2.265-.201 4.04 1.015 5.155 3.448 3.136 6.539-.903 5.379-4.318-1.217-3.571-4.943-4.262-6.405-.837h.011zM795.297 164.376h-3.024v3.091h3.024v-3.091z"/><path fill="#E5F6FF" d="M790.164 160.861c-.97 2.265-.2 4.04 1.016 5.155 3.448 3.136 6.539-.903 5.378-4.318-1.16-3.414-4.943-4.262-6.405-.837h.011zM802.595 164.376h-3.024v3.091h3.024v-3.091z"/><path fill="#E5F6FF" d="M797.462 160.861c-.971 2.265-.201 4.04 1.016 5.155 3.448 3.136 6.538-.903 5.378-4.318-1.161-3.414-4.943-4.262-6.405-.837h.011zM809.893 164.376h-3.024v3.091h3.024v-3.091z"/><path fill="#E5F6FF" d="M804.76 160.861c-.971 2.265-.201 4.04 1.015 5.155 3.448 3.136 6.539-.903 5.379-4.318-1.161-3.414-4.944-4.262-6.405-.837h.011zM817.19 164.376h-3.024v3.091h3.024v-3.091z"/><path fill="#E5F6FF" d="M812.057 160.861c-.97 2.265-.2 4.04 1.016 5.155 3.448 3.136 6.539-.903 5.378-4.318-1.16-3.414-4.943-4.262-6.405-.837h.011zM824.477 164.376h-3.024v3.091h3.024v-3.091z"/><path fill="#E5F6FF" d="M819.355 160.861c-.971 2.265-.201 4.04 1.016 5.155 3.448 3.136 6.538-.903 5.378-4.318-1.161-3.414-4.943-4.262-6.405-.837h.011zM831.775 164.376h-3.024v3.091h3.024v-3.091z"/><path fill="#E5F6FF" d="M826.653 160.861c-.971 2.265-.201 4.04 1.015 5.155 3.448 3.136 6.539-.903 5.379-4.318-1.161-3.414-4.944-4.262-6.405-.837h.011zM839.072 164.376h-3.024v3.091h3.024v-3.091z"/><path fill="#E5F6FF" d="M833.939 160.861c-.97 2.265-.201 4.04 1.016 5.155 3.448 3.136 6.539-.903 5.378-4.318-1.16-3.414-4.943-4.262-6.405-.837h.011zM846.37 164.376h-3.024v3.091h3.024v-3.091z"/><path fill="#E5F6FF" d="M841.237 160.861c-.971 2.265-.201 4.04 1.015 5.155 3.448 3.136 6.539-.903 5.379-4.318-1.161-3.414-4.943-4.262-6.405-.837h.011zM853.668 164.376h-3.024v3.091h3.024v-3.091z"/><path fill="#E5F6FF" d="M848.535 160.861c-.971 2.265-.201 4.04 1.015 5.155 3.448 3.136 6.539-.903 5.379-4.318-1.161-3.414-4.944-4.262-6.405-.837h.011zM860.965 164.376h-3.024v3.091h3.024v-3.091z"/><path fill="#E5F6FF" d="M855.832 160.861c-.971 2.265-.201 4.04 1.016 5.155 3.448 3.136 6.539-.903 5.378-4.318-1.16-3.414-4.943-4.262-6.405-.837h.011zM868.263 164.376h-3.024v3.091h3.024v-3.091z"/><path fill="#E5F6FF" d="M863.13 160.861c-.971 2.265-.201 4.04 1.015 5.155 3.448 3.136 6.539-.903 5.379-4.318-1.161-3.414-4.943-4.262-6.405-.837h.011zM875.549 164.376h-3.024v3.091h3.024v-3.091z"/><path fill="#E5F6FF" d="M870.428 160.861c-.971 2.265-.201 4.04 1.015 5.155 3.448 3.136 6.539-.903 5.379-4.318-1.161-3.414-4.944-4.262-6.405-.837h.011zM780.992 151.455h-8.123v3.18h8.123v-3.18zM792.943 151.455h-8.124v3.18h8.124v-3.18zM804.894 151.455h-8.124v3.18h8.124v-3.18zM816.844 151.455h-8.123v3.18h8.123v-3.18zM828.795 151.455h-8.123v3.18h8.123v-3.18zM840.746 151.455h-8.123v3.18h8.123v-3.18zM852.686 151.455h-8.124v3.18h8.124v-3.18zM864.636 151.455h-8.123v3.18h8.123v-3.18zM780.992 144.938h-8.123v3.18h8.123v-3.18zM792.943 144.938h-8.124v3.18h8.124v-3.18zM804.894 144.938h-8.124v3.18h8.124v-3.18zM816.844 144.938h-8.123v3.18h8.123v-3.18zM828.795 144.938h-8.123v3.18h8.123v-3.18zM840.746 144.938h-8.123v3.18h8.123v-3.18zM852.686 144.938h-8.124v3.18h8.124v-3.18zM864.636 144.938h-8.123v3.18h8.123v-3.18zM780.992 138.421h-8.123v3.181h8.123v-3.181zM792.943 138.421h-8.124v3.181h8.124v-3.181zM804.894 138.421h-8.124v3.181h8.124v-3.181zM816.844 138.421h-8.123v3.181h8.123v-3.181zM828.795 138.421h-8.123v3.181h8.123v-3.181zM840.746 138.421h-8.123v3.181h8.123v-3.181zM852.686 138.421h-8.124v3.181h8.124v-3.181zM864.636 138.421h-8.123v3.181h8.123v-3.181zM780.992 132.284h-8.123v3.18h8.123v-3.18zM792.943 132.284h-8.124v3.18h8.124v-3.18zM804.894 132.284h-8.124v3.18h8.124v-3.18zM816.844 132.284h-8.123v3.18h8.123v-3.18zM828.795 132.284h-8.123v3.18h8.123v-3.18zM840.746 132.284h-8.123v3.18h8.123v-3.18zM852.686 132.284h-8.124v3.18h8.124v-3.18zM864.636 132.284h-8.123v3.18h8.123v-3.18z"/><path fill="#E5F6FF" d="M877.335 148.074h-6.963v19.438h6.963v-19.438z"/><path fill="#fff" d="M1007.34 167.512h119.26v-27.305h-119.26v27.305zM992.111 140.207h137.829v-3.984H992.111v3.984z"/><path fill="#E5F6FF" d="M992.1 142.349h134.5v-2.153H992.1v2.153zM1121.47 145.931h3.78v-2.153h-3.78v2.153zM1109.91 145.931h10.38v-2.153h-10.38v2.153zM1098.62 145.931H1109v-2.153h-10.38v2.153zM1087.33 145.931h10.37v-2.153h-10.37v2.153zM1076.02 145.931h10.38v-2.153h-10.38v2.153zM1064.73 145.931h10.38v-2.153h-10.38v2.153zM1053.44 145.931h10.38v-2.153h-10.38v2.153zM1042.15 145.931h10.37v-2.153h-10.37v2.153zM1030.86 145.931h10.38v-2.153h-10.38v2.153zM1019.57 145.931h10.38v-2.153h-10.38v2.153zM1008.28 145.931h10.38v-2.153h-10.38v2.153zM1121.47 149.145h3.78v-2.154h-3.78v2.154zM1109.91 149.145h10.38v-2.154h-10.38v2.154zM1098.62 149.145H1109v-2.154h-10.38v2.154zM1087.33 149.145h10.37v-2.154h-10.37v2.154zM1076.02 149.145h10.38v-2.154h-10.38v2.154zM1064.73 149.145h10.38v-2.154h-10.38v2.154zM1053.44 149.145h10.38v-2.154h-10.38v2.154zM1042.15 149.145h10.37v-2.154h-10.37v2.154zM1030.86 149.145h10.38v-2.154h-10.38v2.154zM1019.57 149.145h10.38v-2.154h-10.38v2.154zM1008.28 149.145h10.38v-2.154h-10.38v2.154zM1121.47 152.381h3.78v-2.154h-3.78v2.154zM1109.91 152.381h10.38v-2.154h-10.38v2.154zM1098.62 152.381H1109v-2.154h-10.38v2.154zM1087.33 152.381h10.37v-2.154h-10.37v2.154zM1076.02 152.381h10.38v-2.154h-10.38v2.154zM1064.73 152.381h10.38v-2.154h-10.38v2.154zM1053.44 152.381h10.38v-2.154h-10.38v2.154zM1042.15 152.381h10.37v-2.154h-10.37v2.154zM1030.86 152.381h10.38v-2.154h-10.38v2.154zM1019.57 152.381h10.38v-2.154h-10.38v2.154zM1008.28 152.381h10.38v-2.154h-10.38v2.154zM1121.47 155.594h3.78v-2.153h-3.78v2.153zM1109.91 155.594h10.38v-2.153h-10.38v2.153zM1098.62 155.594H1109v-2.153h-10.38v2.153zM1087.33 155.594h10.37v-2.153h-10.37v2.153zM1076.02 155.594h10.38v-2.153h-10.38v2.153zM1064.73 155.594h10.38v-2.153h-10.38v2.153zM1053.44 155.594h10.38v-2.153h-10.38v2.153zM1042.15 155.594h10.37v-2.153h-10.37v2.153zM1030.86 155.594h10.38v-2.153h-10.38v2.153zM1019.57 155.594h10.38v-2.153h-10.38v2.153zM1008.28 155.594h10.38v-2.153h-10.38v2.153zM1121.47 158.819h3.78v-2.153h-3.78v2.153zM1109.91 158.819h10.38v-2.153h-10.38v2.153zM1098.62 158.819H1109v-2.153h-10.38v2.153zM1087.33 158.819h10.37v-2.153h-10.37v2.153zM1076.02 158.819h10.38v-2.153h-10.38v2.153zM1064.73 158.819h10.38v-2.153h-10.38v2.153zM1053.44 158.819h10.38v-2.153h-10.38v2.153zM1042.15 158.819h10.37v-2.153h-10.37v2.153zM1030.86 158.819h10.38v-2.153h-10.38v2.153zM1019.57 158.819h10.38v-2.153h-10.38v2.153zM1008.28 158.819h10.38v-2.153h-10.38v2.153zM1121.47 162.044h3.78v-2.154h-3.78v2.154zM1109.91 162.044h10.38v-2.154h-10.38v2.154zM1098.62 162.044H1109v-2.154h-10.38v2.154zM1087.33 162.044h10.37v-2.154h-10.37v2.154zM1076.02 162.044h10.38v-2.154h-10.38v2.154zM1064.73 162.044h10.38v-2.154h-10.38v2.154zM1053.44 162.044h10.38v-2.154h-10.38v2.154zM1042.15 162.044h10.37v-2.154h-10.37v2.154zM1030.86 162.044h10.38v-2.154h-10.38v2.154zM1019.57 162.044h10.38v-2.154h-10.38v2.154zM1008.28 162.044h10.38v-2.154h-10.38v2.154zM1121.47 165.258h3.78v-2.154h-3.78v2.154zM1109.91 165.258h10.38v-2.154h-10.38v2.154zM1098.62 165.258H1109v-2.154h-10.38v2.154zM1087.33 165.258h10.37v-2.154h-10.37v2.154zM1076.02 165.258h10.38v-2.154h-10.38v2.154zM1064.73 165.258h10.38v-2.154h-10.38v2.154zM1053.44 165.258h10.38v-2.154h-10.38v2.154zM1042.15 165.258h10.37v-2.154h-10.37v2.154zM1030.86 165.258h10.38v-2.154h-10.38v2.154zM1019.57 165.258h10.38v-2.154h-10.38v2.154zM1008.28 165.258h10.38v-2.154h-10.38v2.154zM901.549 128.033h14.684V98.507h-14.684v29.526z"/><path fill="#fff" d="M901.56 125.556h16.503v-3.649H901.56v3.649zM901.56 119.508h16.503v-3.649H901.56v3.649zM901.56 113.482h16.503v-3.649H901.56v3.649zM901.56 107.434h16.503v-3.649H901.56v3.649z"/><path fill="#fff" d="M916.233 111.596h85.267v-4.251h-85.267v4.251zM901.549 132.284h111.411v-4.251H901.549v4.251zM911.067 167.512h100.173v-35.228H911.067v35.228z"/><path fill="#fff" d="M911.067 167.512h100.173v-35.228H911.067v35.228z"/><path fill="#E5F6FF" d="M994.098 107.345h3.024v-3.091h-3.024v3.091z"/><path fill="#fff" d="M999.231 100.739c.969 2.265.2 4.04-1.016 5.155-3.448 3.136-6.539-.903-5.378-4.318 1.16-3.414 4.943-4.262 6.405-.837h-.011z"/><path fill="#E5F6FF" d="M988.541 107.345h3.024v-3.091h-3.024v3.091z"/><path fill="#fff" d="M993.673 100.739c.971 2.265.201 4.04-1.015 5.155-3.448 3.136-6.539-.903-5.378-4.318 1.216-3.57 4.943-4.262 6.405-.837h-.012z"/><path fill="#E5F6FF" d="M982.973 107.345h3.023v-3.091h-3.023v3.091z"/><path fill="#fff" d="M988.106 100.739c.97 2.265.2 4.04-1.016 5.155-3.448 3.136-6.539-.903-5.378-4.318 1.16-3.414 4.943-4.262 6.405-.837h-.011z"/><path fill="#E5F6FF" d="M977.404 107.345h3.024v-3.091h-3.024v3.091z"/><path fill="#fff" d="M982.537 100.739c.971 2.265.201 4.04-1.015 5.155-3.448 3.136-6.539-.903-5.378-4.318 1.16-3.414 4.943-4.262 6.405-.837h-.012z"/><path fill="#E5F6FF" d="M971.836 107.345h3.024v-3.091h-3.024v3.091z"/><path fill="#fff" d="M976.969 100.739c.971 2.265.201 4.04-1.015 5.155-3.448 3.136-6.539-.903-5.379-4.318 1.217-3.57 4.944-4.262 6.405-.837h-.011z"/><path fill="#E5F6FF" d="M966.279 107.345h3.024v-3.091h-3.024v3.091z"/><path fill="#fff" d="M971.412 100.739c.971 2.265.201 4.04-1.015 5.155-3.448 3.136-6.539-.903-5.379-4.318 1.161-3.414 4.944-4.262 6.405-.837h-.011z"/><path fill="#E5F6FF" d="M960.711 107.345h3.024v-3.091h-3.024v3.091z"/><path fill="#fff" d="M965.844 100.739c.971 2.265.201 4.04-1.015 5.155-3.448 3.136-6.539-.903-5.379-4.318 1.161-3.414 4.944-4.262 6.405-.837h-.011z"/><path fill="#E5F6FF" d="M955.143 107.345h3.024v-3.091h-3.024v3.091z"/><path fill="#fff" d="M960.276 100.739c.971 2.265.201 4.04-1.015 5.155-3.448 3.136-6.539-.903-5.379-4.318 1.161-3.414 4.943-4.262 6.405-.837h-.011z"/><path fill="#E5F6FF" d="M949.586 107.345h3.024v-3.091h-3.024v3.091z"/><path fill="#fff" d="M954.708 100.739c.971 2.265.201 4.04-1.015 5.155-3.448 3.136-6.539-.903-5.379-4.318 1.161-3.414 4.943-4.262 6.405-.837h-.011z"/><path fill="#E5F6FF" d="M944.018 107.345h3.024v-3.091h-3.024v3.091z"/><path fill="#fff" d="M949.151 100.739c.971 2.265.201 4.04-1.015 5.155-3.448 3.136-6.539-.903-5.379-4.318 1.161-3.414 4.943-4.262 6.405-.837h-.011z"/><path fill="#E5F6FF" d="M938.461 107.345h3.024v-3.091h-3.024v3.091z"/><path fill="#fff" d="M943.583 100.739c.971 2.265.201 4.04-1.015 5.155-3.448 3.136-6.539-.903-5.379-4.318 1.161-3.414 4.943-4.262 6.405-.837h-.011z"/><path fill="#E5F6FF" d="M932.882 107.345h3.024v-3.091h-3.024v3.091z"/><path fill="#fff" d="M938.015 100.739c.971 2.265.201 4.04-1.016 5.155-3.448 3.136-6.539-.903-5.378-4.318 1.16-3.414 4.943-4.262 6.405-.837h-.011z"/><path fill="#E5F6FF" d="M927.325 107.345h3.024v-3.091h-3.024v3.091z"/><path fill="#fff" d="M932.447 100.739c.971 2.265.201 4.04-1.016 5.155-3.448 3.136-6.539-.903-5.378-4.318 1.16-3.414 4.943-4.262 6.405-.837h-.011z"/><path fill="#E5F6FF" d="M921.757 107.345h3.024v-3.091h-3.024v3.091z"/><path fill="#fff" d="M926.89 100.739c.971 2.265.201 4.04-1.016 5.155-3.448 3.136-6.539-.903-5.378-4.318 1.16-3.414 4.943-4.262 6.405-.837h-.011z"/><path fill="#E5F6FF" d="M916.2 107.345h3.024v-3.091H916.2v3.091z"/><path fill="#fff" d="M921.322 100.739c.971 2.265.201 4.04-1.016 5.155-3.448 3.136-6.539-.903-5.378-4.318 1.216-3.57 4.943-4.262 6.405-.837h-.011z"/><path fill="#E5F6FF" d="M1008.27 136.223h2.97v-2.153h-2.97v2.153zM999.219 136.223h8.121v-2.153h-8.121v2.153zM990.382 136.223h8.123v-2.153h-8.123v2.153zM981.533 136.223h8.123v-2.153h-8.123v2.153zM972.696 136.223h8.123v-2.153h-8.123v2.153zM963.847 136.223h8.123v-2.153h-8.123v2.153zM955.009 136.223h8.124v-2.153h-8.124v2.153zM946.161 136.223h8.123v-2.153h-8.123v2.153zM937.323 136.223h8.123v-2.153h-8.123v2.153zM928.485 136.223h8.124v-2.153h-8.124v2.153zM919.637 136.223h8.123v-2.153h-8.123v2.153zM1008.27 142.349h2.97v-2.153h-2.97v2.153zM999.219 142.349h8.121v-2.153h-8.121v2.153zM990.382 142.349h8.123v-2.153h-8.123v2.153zM981.533 142.349h8.123v-2.153h-8.123v2.153zM972.696 142.349h8.123v-2.153h-8.123v2.153zM963.847 142.349h8.123v-2.153h-8.123v2.153zM955.009 142.349h8.124v-2.153h-8.124v2.153zM946.161 142.349h8.123v-2.153h-8.123v2.153zM937.323 142.349h8.123v-2.153h-8.123v2.153zM928.485 142.349h8.124v-2.153h-8.124v2.153zM919.637 142.349h8.123v-2.153h-8.123v2.153zM1008.27 148.498h2.97v-2.154h-2.97v2.154zM999.219 148.498h8.121v-2.154h-8.121v2.154zM990.382 148.498h8.123v-2.154h-8.123v2.154zM981.533 148.498h8.123v-2.154h-8.123v2.154zM972.696 148.498h8.123v-2.154h-8.123v2.154zM963.847 148.498h8.123v-2.154h-8.123v2.154zM955.009 148.498h8.124v-2.154h-8.124v2.154zM946.161 148.498h8.123v-2.154h-8.123v2.154zM937.323 148.498h8.123v-2.154h-8.123v2.154zM928.485 148.498h8.124v-2.154h-8.124v2.154zM919.637 148.498h8.123v-2.154h-8.123v2.154zM1008.27 154.646h2.97v-2.154h-2.97v2.154zM999.219 154.646h8.121v-2.154h-8.121v2.154zM990.382 154.646h8.123v-2.154h-8.123v2.154zM981.533 154.646h8.123v-2.154h-8.123v2.154zM972.696 154.646h8.123v-2.154h-8.123v2.154zM963.847 154.646h8.123v-2.154h-8.123v2.154zM955.009 154.646h8.124v-2.154h-8.124v2.154zM946.161 154.646h8.123v-2.154h-8.123v2.154zM937.323 154.646h8.123v-2.154h-8.123v2.154zM928.485 154.646h8.124v-2.154h-8.124v2.154zM919.637 154.646h8.123v-2.154h-8.123v2.154zM906.938 167.512h6.963v-19.438h-6.963v19.438z"/><path fill="#fff" d="M918.052 144.849h-51.831v3.649h51.831v-3.649zM777.544 164.376h-3.024v3.091h3.024v-3.091z"/><path fill="#fff" d="M772.422 160.861c-.97 2.265-.2 4.04 1.016 5.155 3.448 3.136 6.539-.903 5.378-4.318-1.16-3.414-4.943-4.262-6.405-.837h.011zM784.842 164.376h-3.024v3.091h3.024v-3.091z"/><path fill="#fff" d="M779.72 160.861c-.971 2.265-.201 4.04 1.015 5.155 3.448 3.136 6.539-.903 5.379-4.318-1.161-3.414-4.943-4.262-6.405-.837h.011zM792.139 164.376h-3.024v3.091h3.024v-3.091z"/><path fill="#fff" d="M787.007 160.861c-.971 2.265-.201 4.04 1.015 5.155 3.448 3.136 6.539-.903 5.378-4.318-1.16-3.414-4.943-4.262-6.405-.837h.012zM799.437 164.376h-3.024v3.091h3.024v-3.091z"/><path fill="#fff" d="M794.304 160.861c-.971 2.265-.201 4.04 1.016 5.155 3.448 3.136 6.539-.903 5.378-4.318-1.16-3.414-4.943-4.262-6.405-.837h.011zM806.735 164.376h-3.024v3.091h3.024v-3.091z"/><path fill="#fff" d="M801.602 160.861c-.971 2.265-.201 4.04 1.015 5.155 3.448 3.136 6.539-.903 5.379-4.318-1.161-3.414-4.943-4.262-6.405-.837h.011zM814.033 164.376h-3.024v3.091h3.024v-3.091z"/><path fill="#fff" d="M808.9 160.861c-.971 2.265-.201 4.04 1.015 5.155 3.448 3.136 6.539-.903 5.378-4.318-1.16-3.414-4.943-4.262-6.405-.837h.012zM821.319 164.376h-3.024v3.091h3.024v-3.091z"/><path fill="#fff" d="M816.197 160.861c-.971 2.265-.201 4.04 1.016 5.155 3.448 3.136 6.539-.903 5.378-4.318-1.16-3.414-4.943-4.262-6.405-.837h.011zM828.617 164.376h-3.024v3.091h3.024v-3.091z"/><path fill="#fff" d="M823.495 160.861c-.971 2.265-.201 4.04 1.015 5.155 3.448 3.136 6.539-.903 5.379-4.318-1.161-3.414-4.944-4.262-6.405-.837h.011zM835.914 164.376h-3.024v3.091h3.024v-3.091z"/><path fill="#fff" d="M830.793 160.861c-.971 2.265-.201 4.04 1.015 5.155 3.448 3.136 6.539-.903 5.378-4.318-1.16-3.414-4.943-4.262-6.405-.837h.012zM843.212 164.376h-3.024v3.091h3.024v-3.091z"/><path fill="#fff" d="M838.079 160.861c-.971 2.265-.201 4.04 1.016 5.155 3.448 3.136 6.538-.903 5.378-4.318-1.161-3.414-4.943-4.262-6.405-.837h.011zM850.51 164.376h-3.024v3.091h3.024v-3.091z"/><path fill="#fff" d="M845.377 160.861c-.971 2.265-.201 4.04 1.015 5.155 3.448 3.136 6.539-.903 5.379-4.318-1.161-3.414-4.944-4.262-6.405-.837h.011zM857.807 164.376h-3.024v3.091h3.024v-3.091z"/><path fill="#fff" d="M852.674 160.861c-.97 2.265-.2 4.04 1.016 5.155 3.448 3.136 6.539-.903 5.378-4.318-1.16-3.414-4.943-4.262-6.405-.837h.011zM865.105 164.376h-3.024v3.091h3.024v-3.091z"/><path fill="#fff" d="M859.972 160.861c-.971 2.265-.201 4.04 1.016 5.155 3.448 3.136 6.538-.903 5.378-4.318-1.16-3.414-4.943-4.262-6.405-.837h.011zM872.392 164.376h-3.024v3.091h3.024v-3.091z"/><path fill="#fff" d="M867.27 160.861c-.971 2.265-.201 4.04 1.015 5.155 3.448 3.136 6.539-.903 5.379-4.318-1.161-3.414-4.944-4.262-6.405-.837h.011z"/><path fill="#E5F6FF" d="M1003.57 167.467h3.03v-3.091h-3.03v3.091z"/><path fill="#E5F6FF" d="M1008.7 160.861c.97 2.265.2 4.04-1.01 5.155-3.45 3.136-6.54-.903-5.38-4.318 1.16-3.414 4.94-4.262 6.41-.837h-.02zM996.285 167.467h3.024v-3.091h-3.024v3.091z"/><path fill="#E5F6FF" d="M1001.41 160.861c.97 2.265.2 4.04-1.02 5.155-3.447 3.136-6.538-.903-5.377-4.318 1.216-3.571 4.943-4.262 6.407-.837h-.01zM988.976 167.467H992v-3.091h-3.024v3.091z"/><path fill="#E5F6FF" d="M994.109 160.861c.97 2.265.201 4.04-1.016 5.155-3.448 3.136-6.539-.903-5.378-4.318 1.216-3.571 4.943-4.262 6.405-.837h-.011zM981.678 167.467h3.024v-3.091h-3.024v3.091z"/><path fill="#E5F6FF" d="M986.811 160.861c.971 2.265.201 4.04-1.015 5.155-3.448 3.136-6.539-.903-5.379-4.318 1.161-3.414 4.943-4.262 6.405-.837h-.011zM974.392 167.467h3.024v-3.091h-3.024v3.091z"/><path fill="#E5F6FF" d="M979.513 160.861c.971 2.265.201 4.04-1.015 5.155-3.448 3.136-6.539-.903-5.378-4.318 1.16-3.414 4.943-4.262 6.405-.837h-.012zM967.094 167.467h3.024v-3.091h-3.024v3.091z"/><path fill="#E5F6FF" d="M972.227 160.861c.971 2.265.201 4.04-1.016 5.155-3.448 3.136-6.538-.903-5.378-4.318 1.161-3.414 4.943-4.262 6.405-.837h-.011zM959.796 167.467h3.024v-3.091h-3.024v3.091z"/><path fill="#E5F6FF" d="M964.929 160.861c.971 2.265.201 4.04-1.015 5.155-3.448 3.136-6.539-.903-5.379-4.318 1.161-3.414 4.944-4.262 6.405-.837h-.011zM952.51 167.467h3.024v-3.091h-3.024v3.091z"/><path fill="#E5F6FF" d="M957.632 160.861c.97 2.265.2 4.04-1.016 5.155-3.448 3.136-6.539-.903-5.378-4.318 1.16-3.414 4.943-4.262 6.405-.837h-.011zM945.201 167.467h3.024v-3.091h-3.024v3.091z"/><path fill="#E5F6FF" d="M950.334 160.861c.971 2.265.201 4.04-1.016 5.155-3.448 3.136-6.539-.903-5.378-4.318 1.16-3.414 4.943-4.262 6.405-.837h-.011zM937.903 167.467h3.024v-3.091h-3.024v3.091z"/><path fill="#E5F6FF" d="M943.036 160.861c.971 2.265.201 4.04-1.015 5.155-3.448 3.136-6.539-.903-5.379-4.318 1.161-3.414 4.944-4.262 6.405-.837h-.011zM930.617 167.467h3.024v-3.091h-3.024v3.091z"/><path fill="#E5F6FF" d="M935.739 160.861c.97 2.265.2 4.04-1.016 5.155-3.448 3.136-6.539-.903-5.378-4.318 1.216-3.571 4.943-4.262 6.405-.837h-.011zM923.319 167.467h3.024v-3.091h-3.024v3.091z"/><path fill="#E5F6FF" d="M928.441 160.861c.971 2.265.201 4.04-1.016 5.155-3.448 3.136-6.538-.903-5.378-4.318 1.16-3.414 4.943-4.262 6.405-.837h-.011zM916.021 167.467h3.024v-3.091h-3.024v3.091z"/><path fill="#E5F6FF" d="M921.154 160.861c.971 2.265.201 4.04-1.015 5.155-3.448 3.136-6.539-.903-5.378-4.318 1.216-3.571 4.943-4.262 6.405-.837h-.012zM908.724 167.467h3.024v-3.091h-3.024v3.091z"/><path fill="#E5F6FF" d="M913.857 160.861c.97 2.265.2 4.04-1.016 5.155-3.448 3.136-6.539-.903-5.378-4.318 1.16-3.414 4.943-4.262 6.405-.837h-.011z"/><path fill="#fff" d="M1006.73 167.467h3.02v-3.091h-3.02v3.091z"/><path fill="#fff" d="M1011.86 160.861c.97 2.265.2 4.04-1.01 5.155-3.45 3.136-6.54-.903-5.38-4.318 1.16-3.414 4.94-4.262 6.4-.837h-.01zM999.443 167.467h3.027v-3.091h-3.027v3.091z"/><path fill="#fff" d="M1004.56 160.861c.98 2.265.21 4.04-1.01 5.155-3.45 3.136-6.54-.903-5.38-4.318 1.161-3.414 4.94-4.262 6.41-.837h-.02zM992.134 167.467h3.024v-3.091h-3.024v3.091z"/><path fill="#fff" d="M997.267 160.861c.97 2.265.2 4.04-1.016 5.155-3.448 3.136-6.539-.903-5.378-4.318 1.216-3.571 4.943-4.262 6.405-.837h-.011zM984.836 167.467h3.024v-3.091h-3.024v3.091z"/><path fill="#fff" d="M989.969 160.861c.971 2.265.201 4.04-1.016 5.155-3.447 3.136-6.538-.903-5.378-4.318 1.161-3.414 4.943-4.262 6.405-.837h-.011zM977.55 167.467h3.023v-3.091h-3.023v3.091z"/><path fill="#fff" d="M982.671 160.861c.971 2.265.201 4.04-1.015 5.155-3.448 3.136-6.539-.903-5.379-4.318 1.161-3.414 4.944-4.262 6.405-.837h-.011zM970.252 167.467h3.024v-3.091h-3.024v3.091z"/><path fill="#fff" d="M975.385 160.861c.97 2.265.201 4.04-1.016 5.155-3.448 3.136-6.539-.903-5.378-4.318 1.16-3.414 4.943-4.262 6.405-.837h-.011zM962.954 167.467h3.024v-3.091h-3.024v3.091z"/><path fill="#fff" d="M968.087 160.861c.971 2.265.201 4.04-1.015 5.155-3.448 3.136-6.539-.903-5.379-4.318 1.161-3.414 4.943-4.262 6.405-.837h-.011zM955.668 167.467h3.024v-3.091h-3.024v3.091z"/><path fill="#fff" d="M960.789 160.861c.971 2.265.201 4.04-1.015 5.155-3.448 3.136-6.539-.903-5.378-4.318 1.16-3.414 4.943-4.262 6.404-.837h-.011zM948.359 167.467h3.024v-3.091h-3.024v3.091z"/><path fill="#fff" d="M953.492 160.861c.971 2.265.201 4.04-1.016 5.155-3.448 3.136-6.539-.903-5.378-4.318 1.16-3.414 4.943-4.262 6.405-.837h-.011zM941.061 167.467h3.024v-3.091h-3.024v3.091z"/><path fill="#fff" d="M946.194 160.861c.971 2.265.201 4.04-1.015 5.155-3.448 3.136-6.539-.903-5.379-4.318 1.216-3.571 4.943-4.262 6.405-.837h-.011zM933.763 167.467h3.024v-3.091h-3.024v3.091z"/><path fill="#fff" d="M938.896 160.861c.971 2.265.201 4.04-1.015 5.155-3.448 3.136-6.539-.903-5.379-4.318 1.161-3.414 4.944-4.262 6.405-.837h-.011zM926.477 167.467h3.024v-3.091h-3.024v3.091z"/><path fill="#fff" d="M931.599 160.861c.97 2.265.201 4.04-1.016 5.155-3.448 3.136-6.539-.903-5.378-4.318 1.16-3.414 4.943-4.262 6.405-.837h-.011zM919.179 167.467h3.024v-3.091h-3.024v3.091z"/><path fill="#fff" d="M924.312 160.861c.971 2.265.201 4.04-1.015 5.155-3.448 3.136-6.539-.903-5.379-4.318 1.161-3.414 4.944-4.262 6.405-.837h-.011zM911.882 167.467h3.024v-3.091h-3.024v3.091z"/><path fill="#fff" d="M917.014 160.861c.971 2.265.201 4.04-1.015 5.155-3.448 3.136-6.539-.903-5.378-4.318 1.16-3.414 4.943-4.262 6.405-.837h-.012z"/></g><defs><clipPath id="a"><path fill="#fff" d="M0 0h705.509v167.512H0z" transform="translate(539.388)"/></clipPath></defs></svg>