<svg width="24" height="19" viewBox="0 0 24 19" fill="none" xmlns="http://www.w3.org/2000/svg">
<path d="M4.29851 0H10.0299L8.31045 5.58805C7.8806 6.87761 7.52239 8.02388 7.52239 9.38507C7.52239 10.4597 7.80896 11.1045 8.66866 11.2478L10.0299 11.4627V18.9851H0V15.5463C0 11.3194 0.78806 8.88358 2.36418 4.87164L4.29851 0ZM18.2687 0H24L22.2806 5.58805C21.8507 6.87761 21.4925 8.02388 21.4925 9.38507C21.4925 10.4597 21.7791 11.1045 22.6388 11.2478L24 11.4627V18.9851H13.9701V15.5463C13.9701 11.3194 14.7582 8.88358 16.3343 4.87164L18.2687 0Z" fill="#A8A8A8"/>
</svg>
