<?xml version="1.0" standalone="no"?>
<!DOCTYPE svg PUBLIC "-//W3C//DTD SVG 20010904//EN"
 "http://www.w3.org/TR/2001/REC-SVG-20010904/DTD/svg10.dtd">
<svg version="1.0" xmlns="http://www.w3.org/2000/svg"
 width="512.000000pt" height="512.000000pt" viewBox="0 0 512.000000 512.000000"
 preserveAspectRatio="xMidYMid meet">
<metadata>
Created by potrace 1.14, written by Peter Selinger 2001-2017
</metadata>
<g transform="translate(0.000000,512.000000) scale(0.100000,-0.100000)"
fill="#000000" stroke="none">
<path d="M2408 3960 c-624 -66 -1166 -438 -1443 -990 -117 -233 -178 -458
-192 -707 l-6 -113 390 0 390 0 6 88 c17 234 127 471 299 643 219 220 538 334
836 300 137 -16 228 -43 347 -101 119 -58 208 -124 298 -219 162 -172 251
-366 278 -607 l12 -104 388 0 389 0 0 28 c0 15 -5 77 -10 137 -79 832 -700
1496 -1525 1630 -116 19 -345 26 -457 15z"/>
<path d="M2485 2839 c-76 -11 -194 -52 -264 -92 -133 -75 -269 -243 -317 -391
-36 -110 -44 -284 -19 -389 108 -450 591 -681 1010 -483 83 39 183 117 243
189 85 103 162 302 162 422 l0 35 -360 0 -360 0 0 360 c0 337 -1 360 -17 359
-10 -1 -45 -5 -78 -10z"/>
</g>
</svg>
